<svg width="137" height="24" viewBox="0 0 137 24" fill="none" xmlns="http://www.w3.org/2000/svg">
<path d="M13.4005 15.6544C14.221 14.4742 14.6534 13.1501 14.6576 11.8313C14.6704 10.9147 14.4561 9.97732 14.1132 9.08545L13.8189 8.44658L13.7141 8.25852L13.3346 8.51681C13.3246 8.55413 13.2884 8.54443 13.2422 8.57205C13.1498 8.6273 13.0936 8.69224 12.9912 8.78481L12.7864 8.96993L12.9074 9.24234C12.9336 9.28936 12.986 9.38339 13.0022 9.46773C13.3651 10.285 13.527 11.1283 13.498 11.9605C13.4814 13.0361 13.1552 14.1086 12.467 15.0842C11.9013 15.8926 11.0132 17.6146 11.328 20.059L11.3442 20.1433L11.4228 20.2844C11.459 20.294 11.449 20.3314 11.4752 20.3784C11.6424 20.6232 11.8095 20.868 12.0229 21.0851L12.9449 22.1322L12.6134 20.7634C12.1424 18.7572 12.3914 17.1039 13.4005 15.6544Z" fill="#959595"/>
<path d="M18.6794 11.5889C18.6627 12.6645 18.3365 13.737 17.6484 14.7126C16.8941 15.7905 15.4588 18.6859 17.5429 22.9242L17.9358 23.6295L17.962 23.6765L18.0668 23.8646L18.2678 23.8384C18.4225 23.8399 18.6235 23.8138 18.8245 23.7876L19.3812 23.7368L19.1193 23.2666C19.0569 23.2099 19.0407 23.1255 18.9883 23.0315C17.7996 20.953 16.8146 17.9692 18.608 15.3298C19.4285 14.1496 19.8609 12.8255 19.8652 11.5067C19.8594 10.2252 19.5241 9.01533 18.9155 7.81226L18.9517 7.82196L18.5226 7.10699C18.4864 7.09729 18.4964 7.05998 18.4702 7.01296L18.3916 6.8719L18.2368 6.87043C18.0458 6.85926 17.8449 6.88541 17.6539 6.87424L17.0148 6.94299L17.3853 7.44226C17.4477 7.49898 17.4639 7.58331 17.5263 7.64003C18.004 8.60801 18.6912 9.95214 18.6794 11.5889Z" fill="#959595"/>
<path d="M20.3007 8.14353C20.9394 9.23464 21.2223 10.3504 21.2319 11.473C21.2152 12.5485 20.8891 13.6211 20.2009 14.5967C18.1065 17.6354 19.281 21.0701 19.9907 22.6202L20.3312 23.2314L20.426 23.4568L20.6831 23.3657C20.8217 23.2829 20.9865 23.247 21.1613 23.1738L21.5108 23.0275L21.3275 22.6984C21.3013 22.6514 21.2489 22.5573 21.2227 22.5103C20.1949 20.5549 19.3609 17.7315 21.1144 15.2414C21.9349 14.0613 22.3673 12.7372 22.3715 11.4183C22.3643 10.5764 22.2024 9.73305 21.9319 8.86057L21.5266 7.91198C21.4742 7.81795 21.448 7.77093 21.3956 7.67689L21.3432 7.58287L21.2346 7.55377C20.9913 7.44856 20.7379 7.38067 20.5307 7.28516L19.6359 7.00539L20.1174 7.8144C20.1698 7.90843 20.2584 8.01217 20.3007 8.14353Z" fill="#959595"/>
<path d="M10.6492 16.0772L10.452 15.9444L10.6492 16.0772C10.7154 15.975 10.7716 15.91 10.8378 15.8078C11.6583 14.6276 12.0907 13.3035 12.0949 11.9847C12.0925 11.704 12.0902 11.4234 12.0516 11.1331L11.8934 10.1307L11.8449 9.87771L11.3915 10.5562C11.2591 10.7607 11.1267 10.9653 10.9943 11.1698L10.9281 11.272L10.9343 11.3937C10.9405 11.5154 10.9829 11.6467 10.9529 11.7587C10.9329 11.8333 10.9491 11.9177 10.9653 12.002C10.9425 12.9559 10.6825 13.9262 10.0767 14.8838C10.0105 14.9861 9.95435 15.0511 9.88815 15.1533L9.76577 15.3205L9.77197 15.4422C9.77436 15.7228 9.76674 16.0408 9.81532 16.2938L9.89727 17.4357L10.4406 16.4213C10.5068 16.3191 10.583 16.1795 10.6492 16.0772Z" fill="#959595"/>
<path d="M16.6115 23.7947L16.2186 23.0894C16.1662 22.9954 16.1138 22.9013 16.0614 22.8073C15.0598 20.899 14.1997 18.0285 15.9531 15.5384C16.7736 14.3583 17.206 13.0342 17.2102 11.7153C17.1945 10.4711 16.8954 9.27098 16.2767 8.10523L15.9 7.4843L15.759 7.28654L15.5019 7.37762C15.3271 7.45079 15.1985 7.49634 15.0337 7.53219L14.648 7.66881L14.9037 8.01734C14.9299 8.06436 14.9823 8.1584 15.0085 8.20541C15.7096 9.35324 16.0287 10.4787 16.0182 11.6759C16.0016 12.7514 15.6754 13.824 14.9873 14.7996C14.4115 15.6453 14.0429 16.5865 13.8915 17.586C13.6125 19.3512 14.0935 21.32 14.8032 22.8701C14.8556 22.9642 14.8718 23.0485 14.9242 23.1426L15.0027 23.2836L15.1113 23.3127C15.3285 23.3709 15.5718 23.4761 15.789 23.5343L16.6115 23.7947Z" fill="#959595"/>
<path d="M23.7412 10.5054L23.9884 10.4516L23.7412 10.5054C23.7898 10.7584 23.7922 11.039 23.8046 11.2824C23.7879 12.3579 23.4617 13.4305 22.7736 14.4061C22.3303 15.0472 22.0317 15.7272 21.8217 16.5109C21.4017 18.0784 21.5246 19.7913 22.1842 21.528L22.4686 22.2042L22.5633 22.4296L22.9067 22.1616C23.0453 22.0787 23.1939 21.9585 23.3063 21.8286L23.511 21.6435L23.4162 21.4181C23.4001 21.3338 23.3377 21.2771 23.3215 21.1927C22.4037 18.8269 22.5356 16.7422 23.7232 15.0605C24.5537 13.8431 25.0223 12.5286 24.9842 11.0784C24.978 10.9568 24.9718 10.8351 24.9756 10.6761L24.9594 10.5918L24.8808 10.4508C24.8446 10.4411 24.8546 10.4037 24.8284 10.3567C24.6513 10.1493 24.5203 9.91416 24.3431 9.70669L23.4835 8.71637L23.7526 10.0285C23.7026 10.2151 23.735 10.3837 23.7412 10.5054Z" fill="#959595"/>
<path d="M25.3824 14.225L25.3162 14.3273C25.0052 14.764 24.6243 15.4619 24.3743 16.3949C24.1143 17.3652 24.0814 18.3564 24.1934 19.3864L24.4263 20.6887L24.8897 19.9729C25.022 19.7684 25.1544 19.5639 25.2606 19.3123L25.2906 19.2004L25.2844 19.0787C25.2782 18.9571 25.2358 18.8257 25.2297 18.704C25.1315 17.4778 25.3591 16.3388 25.9387 15.3341C26.0049 15.2318 26.0711 15.1296 26.1373 15.0273L26.2034 14.925L26.1973 14.8034C26.1849 14.5601 26.1725 14.3167 26.1239 14.0637L25.9919 13.1084L25.4986 13.9362C25.5148 14.0205 25.4486 14.1228 25.3824 14.225Z" fill="#959595"/>
<path d="M12.9682 15.4028C11.6159 14.9157 10.225 14.8408 8.94999 15.178C8.06135 15.4028 7.21135 15.8525 6.43863 16.4145L5.89771 16.8642L5.74316 17.0141L6.09089 17.3138C6.12953 17.3138 6.12953 17.3513 6.16817 17.3888C6.24544 17.4637 6.32272 17.5012 6.43863 17.5761L6.67043 17.726L6.90226 17.5386C6.94089 17.5012 7.01816 17.4262 7.09544 17.3888C7.79089 16.8267 8.56362 16.452 9.37498 16.2646C10.4182 16.0023 11.5386 16.0398 12.6591 16.452C13.5863 16.7892 15.4795 17.2014 17.7591 16.2646L17.8364 16.2272L17.9523 16.1148C17.9523 16.0773 17.9909 16.0773 18.0295 16.0398C18.2227 15.815 18.4159 15.5902 18.5704 15.3279L19.3432 14.1663L18.1068 14.8407C16.2909 15.815 14.6295 16.0023 12.9682 15.4028Z" fill="#56E7D5"/>
<path d="M7.67494 11.356C8.71812 11.0937 9.83857 11.1311 10.959 11.5433C12.1954 11.993 15.3636 12.63 18.9181 9.51991L19.4977 8.95785L19.5363 8.92037L19.6908 8.77049L19.6136 8.58314C19.5749 8.43326 19.4977 8.2459 19.4204 8.05855L19.2272 7.53395L18.8408 7.90866C18.8022 7.9836 18.7249 8.02107 18.6477 8.09601C16.9477 9.7822 14.3204 11.5059 11.3068 10.4567C9.95448 9.96956 8.56357 9.89461 7.28857 10.2318C6.05221 10.5691 4.97039 11.2061 3.96584 12.1054V12.0679L3.3863 12.6674C3.3863 12.7049 3.34767 12.7049 3.30903 12.7424L3.19312 12.8548L3.23175 13.0047C3.27039 13.192 3.34766 13.3794 3.3863 13.5667L3.61812 14.1663L4.00448 13.6792C4.04312 13.6042 4.12039 13.5667 4.15902 13.4918C4.97039 12.7799 6.09084 11.7681 7.67494 11.356Z" fill="#56E7D5"/>
<path d="M3.92728 10.6815C4.81592 9.78221 5.82046 9.22014 6.90228 8.92037C7.94546 8.65808 9.06591 8.69555 10.1864 9.10773C13.6636 10.3443 16.6773 8.32084 17.9909 7.23419L18.4932 6.74708L18.6864 6.59718L18.5318 6.37237C18.4159 6.25996 18.3386 6.11007 18.2227 5.96019L17.9909 5.66042L17.7205 5.92272C17.6818 5.96019 17.6045 6.03513 17.5659 6.0726C15.9432 7.57143 13.4318 9.10773 10.5727 8.05855C9.22046 7.57143 7.82955 7.49649 6.55455 7.83373C5.74319 8.05855 4.97046 8.43325 4.19773 8.92037L3.38636 9.55738C3.30909 9.63232 3.27045 9.66979 3.19318 9.74474L3.11592 9.81967V9.93209C3.07728 10.1944 3.07728 10.4567 3.03864 10.6815L3 11.6183L3.65682 10.9438C3.7341 10.8689 3.81137 10.7564 3.92728 10.6815Z" fill="#56E7D5"/>
<path d="M14.0885 17.9508L14.0112 18.1757L14.0885 17.9508C13.9726 17.9134 13.8953 17.8759 13.7794 17.8384C12.4271 17.3513 11.0362 17.2764 9.76122 17.6136C9.49076 17.6885 9.22032 17.7635 8.94986 17.8759L8.02258 18.2881L7.79077 18.4005L8.5635 18.6628C8.79532 18.7377 9.02713 18.8127 9.25895 18.8876L9.37485 18.9251L9.49077 18.8876C9.60668 18.8501 9.72258 18.7752 9.83849 18.7752C9.91577 18.7752 9.99304 18.7377 10.0703 18.7002C10.9976 18.4754 12.0021 18.4754 13.0839 18.8126C13.1999 18.8501 13.2771 18.8876 13.393 18.9251L13.5862 19L13.7021 18.9625C13.9726 18.8876 14.2817 18.8127 14.5135 18.7002L15.5953 18.3255L14.4749 18.0632C14.3589 18.0258 14.2044 17.9883 14.0885 17.9508Z" fill="#56E7D5"/>
<path d="M19.9999 10.1944L19.4203 10.7564C19.3431 10.8314 19.2658 10.9063 19.1885 10.9813C17.6045 12.4426 15.0544 14.0164 12.1954 12.9672C10.8431 12.4801 9.45218 12.4051 8.17718 12.7424C6.97945 13.0796 5.89762 13.6791 4.93171 14.5784L4.42945 15.103L4.2749 15.2904L4.42945 15.5152C4.54535 15.6651 4.62263 15.7775 4.6999 15.9274L4.93171 16.2646L5.20217 15.9274C5.24081 15.8899 5.31808 15.815 5.35672 15.7775C6.28399 14.8033 7.28853 14.2037 8.44762 13.904C9.49081 13.6417 10.6113 13.6791 11.7317 14.0913C12.6976 14.4286 13.7022 14.541 14.7067 14.4286C16.484 14.2412 18.2613 13.267 19.5749 12.1803C19.6522 12.1054 19.7294 12.0679 19.8067 11.993L19.9226 11.8805V11.7681C19.9226 11.5433 19.9613 11.281 19.9613 11.0562L19.9999 10.1944Z" fill="#56E7D5"/>
<path d="M5.3181 6.74708L5.20219 6.52225L5.3181 6.74708C5.54992 6.63467 5.82038 6.55972 6.0522 6.48478C7.09538 6.22248 8.21583 6.25996 9.33629 6.67213C10.0704 6.93443 10.8045 7.04684 11.6158 7.04684C13.2386 7.04684 14.8613 6.48478 16.3681 5.39813L16.9476 4.94848L17.1408 4.7986L16.7931 4.5363C16.6772 4.42388 16.5226 4.31148 16.3681 4.23654L16.1363 4.08665L15.9431 4.23654C15.8658 4.27401 15.8272 4.34895 15.7499 4.38642C13.7022 5.88525 11.6545 6.29743 9.72265 5.58548C8.33174 5.09836 6.94083 4.98595 5.54992 5.39813C5.43401 5.4356 5.3181 5.47307 5.16355 5.51054L5.08629 5.54801L4.97037 5.66042C4.97037 5.69789 4.93174 5.69789 4.89311 5.73536C4.73856 5.96019 4.54537 6.14755 4.39083 6.37237L3.65674 7.45902L4.85447 6.85949C5.04765 6.85949 5.20219 6.78455 5.3181 6.74708Z" fill="#56E7D5"/>
<path d="M8.48637 4.19906L8.60227 4.23653C9.10455 4.42388 9.87728 4.61124 10.8432 4.61124C11.8477 4.61124 12.8136 4.38641 13.7796 4.0117L14.9773 3.44964L14.1659 3.18735C13.9341 3.11241 13.7023 3.03747 13.4318 3H13.3159L13.2 3.03746C13.0841 3.07493 12.9682 3.14988 12.8523 3.18735C11.6932 3.59953 10.5341 3.67447 9.41364 3.37471C9.29773 3.33724 9.18182 3.29976 9.06591 3.26229L8.95001 3.22482L8.83409 3.26229C8.60228 3.33723 8.37046 3.41218 8.13864 3.52459L7.25 3.8993L8.17728 4.16158C8.25455 4.12411 8.37046 4.16159 8.48637 4.19906Z" fill="#56E7D5"/>
<path d="M41.318 18.68C40.31 18.68 39.44 18.5 38.708 18.14C37.988 17.78 37.43 17.234 37.034 16.502C36.65 15.758 36.458 14.804 36.458 13.64V6.332C36.458 6.2 36.494 6.098 36.566 6.026C36.638 5.942 36.74 5.9 36.872 5.9H37.79C37.922 5.9 38.024 5.942 38.096 6.026C38.18 6.098 38.222 6.2 38.222 6.332V13.676C38.222 14.852 38.498 15.722 39.05 16.286C39.602 16.85 40.358 17.132 41.318 17.132C42.266 17.132 43.016 16.85 43.568 16.286C44.132 15.722 44.414 14.852 44.414 13.676V6.332C44.414 6.2 44.45 6.098 44.522 6.026C44.606 5.942 44.708 5.9 44.828 5.9H45.764C45.884 5.9 45.98 5.942 46.052 6.026C46.136 6.098 46.178 6.2 46.178 6.332V13.64C46.178 14.804 45.98 15.758 45.584 16.502C45.2 17.234 44.648 17.78 43.928 18.14C43.208 18.5 42.338 18.68 41.318 18.68ZM52.1228 18.68C51.4508 18.68 50.8748 18.596 50.3948 18.428C49.9148 18.26 49.5248 18.056 49.2248 17.816C48.9248 17.576 48.6968 17.336 48.5408 17.096C48.3968 16.856 48.3188 16.664 48.3068 16.52C48.2948 16.388 48.3368 16.286 48.4328 16.214C48.5288 16.142 48.6248 16.106 48.7208 16.106H49.5128C49.5848 16.106 49.6388 16.118 49.6748 16.142C49.7228 16.154 49.7828 16.202 49.8548 16.286C50.0108 16.454 50.1848 16.622 50.3768 16.79C50.5688 16.958 50.8028 17.096 51.0788 17.204C51.3668 17.312 51.7208 17.366 52.1408 17.366C52.7528 17.366 53.2568 17.252 53.6528 17.024C54.0488 16.784 54.2468 16.436 54.2468 15.98C54.2468 15.68 54.1628 15.44 53.9948 15.26C53.8388 15.08 53.5508 14.918 53.1308 14.774C52.7228 14.63 52.1588 14.48 51.4388 14.324C50.7188 14.156 50.1488 13.952 49.7288 13.712C49.3088 13.46 49.0088 13.166 48.8288 12.83C48.6488 12.482 48.5588 12.092 48.5588 11.66C48.5588 11.216 48.6908 10.79 48.9548 10.382C49.2188 9.962 49.6028 9.62 50.1068 9.356C50.6228 9.092 51.2648 8.96 52.0328 8.96C52.6568 8.96 53.1908 9.038 53.6348 9.194C54.0788 9.35 54.4448 9.548 54.7328 9.788C55.0208 10.016 55.2368 10.244 55.3808 10.472C55.5248 10.7 55.6028 10.892 55.6148 11.048C55.6268 11.168 55.5908 11.27 55.5068 11.354C55.4228 11.426 55.3268 11.462 55.2188 11.462H54.4628C54.3788 11.462 54.3068 11.444 54.2468 11.408C54.1988 11.372 54.1508 11.33 54.1028 11.282C53.9828 11.126 53.8388 10.97 53.6708 10.814C53.5148 10.658 53.3048 10.532 53.0408 10.436C52.7888 10.328 52.4528 10.274 52.0328 10.274C51.4328 10.274 50.9828 10.4 50.6828 10.652C50.3828 10.904 50.2328 11.222 50.2328 11.606C50.2328 11.834 50.2988 12.038 50.4308 12.218C50.5628 12.398 50.8148 12.56 51.1868 12.704C51.5588 12.848 52.1108 13.004 52.8428 13.172C53.6348 13.328 54.2588 13.538 54.7148 13.802C55.1708 14.066 55.4948 14.372 55.6868 14.72C55.8788 15.068 55.9748 15.47 55.9748 15.926C55.9748 16.43 55.8248 16.892 55.5248 17.312C55.2368 17.732 54.8048 18.068 54.2288 18.32C53.6648 18.56 52.9628 18.68 52.1228 18.68ZM61.7846 18.68C60.5486 18.68 59.5646 18.302 58.8326 17.546C58.1006 16.778 57.6986 15.734 57.6266 14.414C57.6146 14.258 57.6086 14.06 57.6086 13.82C57.6086 13.568 57.6146 13.364 57.6266 13.208C57.6746 12.356 57.8726 11.612 58.2206 10.976C58.5686 10.328 59.0426 9.83 59.6426 9.482C60.2546 9.134 60.9686 8.96 61.7846 8.96C62.6966 8.96 63.4586 9.152 64.0706 9.536C64.6946 9.92 65.1686 10.466 65.4926 11.174C65.8166 11.882 65.9786 12.71 65.9786 13.658V13.964C65.9786 14.096 65.9366 14.198 65.8526 14.27C65.7806 14.342 65.6846 14.378 65.5646 14.378H59.3366C59.3366 14.39 59.3366 14.414 59.3366 14.45C59.3366 14.486 59.3366 14.516 59.3366 14.54C59.3606 15.032 59.4686 15.494 59.6606 15.926C59.8526 16.346 60.1286 16.688 60.4886 16.952C60.8486 17.216 61.2806 17.348 61.7846 17.348C62.2166 17.348 62.5766 17.282 62.8646 17.15C63.1526 17.018 63.3866 16.874 63.5666 16.718C63.7466 16.55 63.8666 16.424 63.9266 16.34C64.0346 16.184 64.1186 16.094 64.1786 16.07C64.2386 16.034 64.3346 16.016 64.4666 16.016H65.3306C65.4506 16.016 65.5466 16.052 65.6186 16.124C65.7026 16.184 65.7386 16.274 65.7266 16.394C65.7146 16.574 65.6186 16.796 65.4386 17.06C65.2586 17.312 65.0006 17.564 64.6646 17.816C64.3286 18.068 63.9206 18.278 63.4406 18.446C62.9606 18.602 62.4086 18.68 61.7846 18.68ZM59.3366 13.136H64.2686V13.082C64.2686 12.542 64.1666 12.062 63.9626 11.642C63.7706 11.222 63.4886 10.892 63.1166 10.652C62.7446 10.4 62.3006 10.274 61.7846 10.274C61.2686 10.274 60.8246 10.4 60.4526 10.652C60.0926 10.892 59.8166 11.222 59.6246 11.642C59.4326 12.062 59.3366 12.542 59.3366 13.082V13.136ZM68.5628 18.5C68.4428 18.5 68.3408 18.464 68.2568 18.392C68.1848 18.308 68.1488 18.206 68.1488 18.086V6.134C68.1488 6.014 68.1848 5.918 68.2568 5.846C68.3408 5.762 68.4428 5.72 68.5628 5.72H69.4088C69.5408 5.72 69.6428 5.762 69.7148 5.846C69.7868 5.918 69.8228 6.014 69.8228 6.134V18.086C69.8228 18.206 69.7868 18.308 69.7148 18.392C69.6428 18.464 69.5408 18.5 69.4088 18.5H68.5628ZM76.2338 18.68C74.9978 18.68 74.0138 18.302 73.2818 17.546C72.5498 16.778 72.1478 15.734 72.0758 14.414C72.0638 14.258 72.0578 14.06 72.0578 13.82C72.0578 13.568 72.0638 13.364 72.0758 13.208C72.1238 12.356 72.3218 11.612 72.6698 10.976C73.0178 10.328 73.4918 9.83 74.0918 9.482C74.7038 9.134 75.4178 8.96 76.2338 8.96C77.1458 8.96 77.9078 9.152 78.5198 9.536C79.1438 9.92 79.6178 10.466 79.9418 11.174C80.2658 11.882 80.4278 12.71 80.4278 13.658V13.964C80.4278 14.096 80.3858 14.198 80.3018 14.27C80.2298 14.342 80.1338 14.378 80.0138 14.378H73.7858C73.7858 14.39 73.7858 14.414 73.7858 14.45C73.7858 14.486 73.7858 14.516 73.7858 14.54C73.8098 15.032 73.9178 15.494 74.1098 15.926C74.3018 16.346 74.5778 16.688 74.9378 16.952C75.2978 17.216 75.7298 17.348 76.2338 17.348C76.6658 17.348 77.0258 17.282 77.3138 17.15C77.6018 17.018 77.8358 16.874 78.0158 16.718C78.1958 16.55 78.3158 16.424 78.3758 16.34C78.4838 16.184 78.5678 16.094 78.6278 16.07C78.6878 16.034 78.7838 16.016 78.9158 16.016H79.7798C79.8998 16.016 79.9958 16.052 80.0678 16.124C80.1518 16.184 80.1878 16.274 80.1758 16.394C80.1638 16.574 80.0678 16.796 79.8878 17.06C79.7078 17.312 79.4498 17.564 79.1138 17.816C78.7778 18.068 78.3698 18.278 77.8898 18.446C77.4098 18.602 76.8578 18.68 76.2338 18.68ZM73.7858 13.136H78.7178V13.082C78.7178 12.542 78.6158 12.062 78.4118 11.642C78.2198 11.222 77.9378 10.892 77.5658 10.652C77.1938 10.4 76.7498 10.274 76.2338 10.274C75.7178 10.274 75.2738 10.4 74.9018 10.652C74.5418 10.892 74.2658 11.222 74.0738 11.642C73.8818 12.062 73.7858 12.542 73.7858 13.082V13.136ZM85.82 18.68C85.148 18.68 84.572 18.596 84.092 18.428C83.612 18.26 83.222 18.056 82.922 17.816C82.622 17.576 82.394 17.336 82.238 17.096C82.094 16.856 82.016 16.664 82.004 16.52C81.992 16.388 82.034 16.286 82.13 16.214C82.226 16.142 82.322 16.106 82.418 16.106H83.21C83.282 16.106 83.336 16.118 83.372 16.142C83.42 16.154 83.48 16.202 83.552 16.286C83.708 16.454 83.882 16.622 84.074 16.79C84.266 16.958 84.5 17.096 84.776 17.204C85.064 17.312 85.418 17.366 85.838 17.366C86.45 17.366 86.954 17.252 87.35 17.024C87.746 16.784 87.944 16.436 87.944 15.98C87.944 15.68 87.86 15.44 87.692 15.26C87.536 15.08 87.248 14.918 86.828 14.774C86.42 14.63 85.856 14.48 85.136 14.324C84.416 14.156 83.846 13.952 83.426 13.712C83.006 13.46 82.706 13.166 82.526 12.83C82.346 12.482 82.256 12.092 82.256 11.66C82.256 11.216 82.388 10.79 82.652 10.382C82.916 9.962 83.3 9.62 83.804 9.356C84.32 9.092 84.962 8.96 85.73 8.96C86.354 8.96 86.888 9.038 87.332 9.194C87.776 9.35 88.142 9.548 88.43 9.788C88.718 10.016 88.934 10.244 89.078 10.472C89.222 10.7 89.3 10.892 89.312 11.048C89.324 11.168 89.288 11.27 89.204 11.354C89.12 11.426 89.024 11.462 88.916 11.462H88.16C88.076 11.462 88.004 11.444 87.944 11.408C87.896 11.372 87.848 11.33 87.8 11.282C87.68 11.126 87.536 10.97 87.368 10.814C87.212 10.658 87.002 10.532 86.738 10.436C86.486 10.328 86.15 10.274 85.73 10.274C85.13 10.274 84.68 10.4 84.38 10.652C84.08 10.904 83.93 11.222 83.93 11.606C83.93 11.834 83.996 12.038 84.128 12.218C84.26 12.398 84.512 12.56 84.884 12.704C85.256 12.848 85.808 13.004 86.54 13.172C87.332 13.328 87.956 13.538 88.412 13.802C88.868 14.066 89.192 14.372 89.384 14.72C89.576 15.068 89.672 15.47 89.672 15.926C89.672 16.43 89.522 16.892 89.222 17.312C88.934 17.732 88.502 18.068 87.926 18.32C87.362 18.56 86.66 18.68 85.82 18.68ZM94.9958 18.68C94.3238 18.68 93.7478 18.596 93.2678 18.428C92.7878 18.26 92.3978 18.056 92.0978 17.816C91.7978 17.576 91.5698 17.336 91.4138 17.096C91.2698 16.856 91.1918 16.664 91.1798 16.52C91.1678 16.388 91.2098 16.286 91.3058 16.214C91.4018 16.142 91.4978 16.106 91.5938 16.106H92.3858C92.4578 16.106 92.5118 16.118 92.5478 16.142C92.5958 16.154 92.6558 16.202 92.7278 16.286C92.8838 16.454 93.0578 16.622 93.2498 16.79C93.4418 16.958 93.6758 17.096 93.9518 17.204C94.2398 17.312 94.5938 17.366 95.0138 17.366C95.6258 17.366 96.1298 17.252 96.5258 17.024C96.9218 16.784 97.1198 16.436 97.1198 15.98C97.1198 15.68 97.0358 15.44 96.8678 15.26C96.7118 15.08 96.4238 14.918 96.0038 14.774C95.5958 14.63 95.0318 14.48 94.3118 14.324C93.5918 14.156 93.0218 13.952 92.6018 13.712C92.1818 13.46 91.8818 13.166 91.7018 12.83C91.5218 12.482 91.4318 12.092 91.4318 11.66C91.4318 11.216 91.5638 10.79 91.8278 10.382C92.0918 9.962 92.4758 9.62 92.9798 9.356C93.4958 9.092 94.1378 8.96 94.9058 8.96C95.5298 8.96 96.0638 9.038 96.5078 9.194C96.9518 9.35 97.3178 9.548 97.6058 9.788C97.8938 10.016 98.1098 10.244 98.2538 10.472C98.3978 10.7 98.4758 10.892 98.4878 11.048C98.4998 11.168 98.4638 11.27 98.3798 11.354C98.2958 11.426 98.1998 11.462 98.0918 11.462H97.3358C97.2518 11.462 97.1798 11.444 97.1198 11.408C97.0718 11.372 97.0238 11.33 96.9758 11.282C96.8558 11.126 96.7118 10.97 96.5438 10.814C96.3878 10.658 96.1778 10.532 95.9138 10.436C95.6618 10.328 95.3258 10.274 94.9058 10.274C94.3058 10.274 93.8558 10.4 93.5558 10.652C93.2558 10.904 93.1058 11.222 93.1058 11.606C93.1058 11.834 93.1718 12.038 93.3038 12.218C93.4358 12.398 93.6878 12.56 94.0598 12.704C94.4318 12.848 94.9838 13.004 95.7158 13.172C96.5078 13.328 97.1318 13.538 97.5878 13.802C98.0438 14.066 98.3678 14.372 98.5598 14.72C98.7518 15.068 98.8478 15.47 98.8478 15.926C98.8478 16.43 98.6978 16.892 98.3978 17.312C98.1098 17.732 97.6778 18.068 97.1018 18.32C96.5378 18.56 95.8358 18.68 94.9958 18.68Z" fill="black"/>
<path d="M104.568 18.5C104.376 18.5 104.22 18.452 104.1 18.356C103.992 18.248 103.914 18.122 103.866 17.978L100.086 6.44C100.074 6.38 100.068 6.326 100.068 6.278C100.068 6.182 100.104 6.098 100.176 6.026C100.248 5.942 100.338 5.9 100.446 5.9H102.336C102.516 5.9 102.654 5.954 102.75 6.062C102.858 6.158 102.924 6.248 102.948 6.332L105.756 15.134L108.546 6.332C108.582 6.248 108.648 6.158 108.744 6.062C108.84 5.954 108.978 5.9 109.158 5.9H111.048C111.156 5.9 111.246 5.942 111.318 6.026C111.39 6.098 111.426 6.182 111.426 6.278C111.426 6.326 111.42 6.38 111.408 6.44L107.628 17.978C107.592 18.122 107.514 18.248 107.394 18.356C107.286 18.452 107.13 18.5 106.926 18.5H104.568ZM113.669 18.5C113.537 18.5 113.429 18.458 113.345 18.374C113.261 18.29 113.219 18.182 113.219 18.05V6.35C113.219 6.218 113.261 6.11 113.345 6.026C113.429 5.942 113.537 5.9 113.669 5.9H118.583C119.555 5.9 120.395 6.05 121.103 6.35C121.823 6.65 122.381 7.106 122.777 7.718C123.185 8.318 123.389 9.068 123.389 9.968C123.389 10.88 123.185 11.636 122.777 12.236C122.381 12.824 121.823 13.262 121.103 13.55C120.395 13.838 119.555 13.982 118.583 13.982H116.171V18.05C116.171 18.182 116.129 18.29 116.045 18.374C115.961 18.458 115.853 18.5 115.721 18.5H113.669ZM116.117 11.75H118.493C119.105 11.75 119.579 11.6 119.915 11.3C120.263 11 120.437 10.55 120.437 9.95C120.437 9.422 120.281 8.99 119.969 8.654C119.669 8.318 119.177 8.15 118.493 8.15H116.117V11.75ZM125.675 18.5C125.543 18.5 125.435 18.458 125.351 18.374C125.267 18.29 125.225 18.182 125.225 18.05V6.35C125.225 6.218 125.267 6.11 125.351 6.026C125.435 5.942 125.543 5.9 125.675 5.9H127.313C127.493 5.9 127.625 5.942 127.709 6.026C127.793 6.11 127.847 6.176 127.871 6.224L132.677 13.73V6.35C132.677 6.218 132.719 6.11 132.803 6.026C132.887 5.942 132.989 5.9 133.109 5.9H134.945C135.077 5.9 135.185 5.942 135.269 6.026C135.353 6.11 135.395 6.218 135.395 6.35V18.05C135.395 18.17 135.353 18.278 135.269 18.374C135.185 18.458 135.077 18.5 134.945 18.5H133.289C133.109 18.5 132.977 18.458 132.893 18.374C132.821 18.278 132.767 18.212 132.731 18.176L127.943 10.904V18.05C127.943 18.182 127.901 18.29 127.817 18.374C127.733 18.458 127.625 18.5 127.493 18.5H125.675Z" fill="#101010"/>
</svg>
