<svg width="558" height="632" viewBox="0 0 558 632" fill="none" xmlns="http://www.w3.org/2000/svg">
<path d="M521.049 399.677H338.148V279.799H521.049V399.677ZM339.264 398.413H519.933V281.063H339.264V398.413Z" fill="#E0E0E0"/>
<path d="M483.317 343.719H362.644V347.726H483.317V343.719Z" fill="#F0F0F0"/>
<path d="M491.631 358.66H362.644V363.033H491.631V358.66Z" fill="#F0F0F0"/>
<path d="M491.631 373.777H362.644V378.151H491.631V373.777Z" fill="#F0F0F0"/>
<path d="M404.818 322.017H362.644V332.419H404.818V322.017Z" fill="#F0F0F0"/>
<path d="M520.491 280.431H338.739V299.517H520.491V280.431Z" fill="#E0E0E0"/>
<path d="M506.507 296.661C506.273 296.408 508.617 293.21 511.73 289.519C514.844 285.828 517.578 283.035 517.801 283.275C518.025 283.515 515.692 286.726 512.578 290.429C509.465 294.133 506.731 296.914 506.507 296.661Z" fill="white"/>
<path d="M517.824 296.661C517.601 296.914 514.878 294.133 511.753 290.429C508.628 286.726 506.296 283.528 506.53 283.275C506.764 283.022 509.476 285.803 512.601 289.519C515.726 293.235 518.036 296.408 517.824 296.661Z" fill="white"/>
<path d="M295.985 43.0392H114.233V161.666H295.985V43.0392Z" fill="#E6E6E6"/>
<path d="M258.822 106.34H138.149V110.347H258.822V106.34Z" fill="#F0F0F0"/>
<path d="M267.137 121.281H138.149V125.654H267.137V121.281Z" fill="#F0F0F0"/>
<path d="M267.137 136.398H138.149V140.772H267.137V136.398Z" fill="#F0F0F0"/>
<path d="M180.323 84.6375H138.149V95.0402H180.323V84.6375Z" fill="#F0F0F0"/>
<path d="M295.985 43.0392H114.233V62.1256H295.985V43.0392Z" fill="#E0E0E0"/>
<path d="M281.388 59.1805C281.154 58.9404 283.497 55.7298 286.611 52.0389C289.725 48.348 292.459 45.5546 292.682 45.8074C292.905 46.0602 290.573 49.2581 287.459 52.949C284.346 56.6399 281.611 59.408 281.388 59.1805Z" fill="white"/>
<path d="M292.682 59.1805C292.459 59.4333 289.736 56.6525 286.611 52.9489C283.486 49.2454 281.154 46.0601 281.388 45.8073C281.623 45.5545 284.335 48.3353 287.459 52.0389C290.584 55.7424 292.917 58.9403 292.682 59.1805Z" fill="white"/>
<path d="M227.15 263.405H44.2827V143.515H227.15V263.405ZM45.3987 262.141H226.034V144.779H45.3987V262.141Z" fill="#E0E0E0"/>
<path d="M189.429 207.448H68.7563V211.455H189.429V207.448Z" fill="#F0F0F0"/>
<path d="M197.744 222.388H68.7563V226.762H197.744V222.388Z" fill="#F0F0F0"/>
<path d="M197.744 237.506H68.7563V241.879H197.744V237.506Z" fill="#F0F0F0"/>
<path d="M110.93 185.745H68.7563V196.147H110.93V185.745Z" fill="#F0F0F0"/>
<path d="M226.593 144.146H44.8408V163.233H226.593V144.146Z" fill="#E0E0E0"/>
<path d="M438.197 290.872H223.59V508.482H438.197V290.872Z" fill="#E6E6E6"/>
<path d="M234.382 222.325H66.2681V420.154H234.382V222.325Z" fill="#F0F0F0"/>
<path d="M234.382 222.325H66.2681V243.876H234.382V222.325Z" fill="#E0E0E0"/>
<path d="M80.1507 232.879C80.1201 233.661 79.8876 234.415 79.482 235.048C79.0763 235.681 78.5155 236.166 77.869 236.441C77.2225 236.716 76.5189 236.771 75.8454 236.597C75.1719 236.424 74.5582 236.03 74.0805 235.465C73.6028 234.9 73.2822 234.188 73.1583 233.419C73.0344 232.649 73.1128 231.855 73.3837 231.136C73.6546 230.416 74.1061 229.802 74.6821 229.371C75.2582 228.939 75.9335 228.709 76.6242 228.708C77.5793 228.735 78.4863 229.188 79.1471 229.97C79.8079 230.751 80.1687 231.797 80.1507 232.879Z" fill="white"/>
<path d="M94.4694 232.879C94.441 233.665 94.2093 234.423 93.8032 235.06C93.3971 235.697 92.8345 236.185 92.1854 236.463C91.5364 236.741 90.8295 236.796 90.1528 236.623C89.4761 236.449 88.8594 236.054 88.3795 235.486C87.8996 234.919 87.5777 234.204 87.4538 233.43C87.3299 232.657 87.4095 231.86 87.6827 231.137C87.9559 230.415 88.4107 229.799 88.9903 229.368C89.57 228.936 90.249 228.706 90.9429 228.708C91.898 228.735 92.805 229.188 93.4658 229.97C94.1266 230.751 94.4874 231.797 94.4694 232.879Z" fill="white"/>
<path d="M108.787 232.879C108.759 233.665 108.527 234.423 108.121 235.06C107.715 235.697 107.152 236.185 106.503 236.463C105.854 236.741 105.147 236.796 104.471 236.623C103.794 236.449 103.177 236.054 102.697 235.486C102.218 234.919 101.896 234.204 101.772 233.43C101.648 232.657 101.727 231.86 102.001 231.137C102.274 230.415 102.729 229.799 103.308 229.368C103.888 228.936 104.567 228.706 105.261 228.708C106.216 228.735 107.123 229.188 107.784 229.97C108.444 230.751 108.805 231.797 108.787 232.879Z" fill="white"/>
<path d="M497.044 86.3059H282.437V328.564H497.044V86.3059Z" fill="#F0F0F0"/>
<path d="M497.044 86.3059H282.437V114.683H497.044V86.3059Z" fill="#E0E0E0"/>
<path d="M300.717 100.21C300.678 101.242 300.372 102.237 299.837 103.074C299.302 103.91 298.563 104.55 297.71 104.914C296.857 105.279 295.928 105.351 295.039 105.123C294.15 104.894 293.339 104.375 292.708 103.63C292.077 102.885 291.654 101.946 291.49 100.93C291.326 99.9141 291.429 98.8662 291.787 97.9163C292.144 96.9663 292.74 96.1562 293.5 95.5865C294.26 95.0167 295.152 94.7125 296.063 94.7115C297.323 94.7447 298.521 95.3419 299.393 96.3724C300.265 97.4029 300.741 98.7827 300.717 100.21Z" fill="white"/>
<path d="M318.205 96.4937C318.824 97.2547 319.231 98.205 319.376 99.2263C319.521 100.248 319.398 101.295 319.021 102.237C318.645 103.18 318.032 103.976 317.259 104.526C316.485 105.077 315.586 105.358 314.673 105.334C313.76 105.309 312.873 104.982 312.124 104.391C311.374 103.8 310.794 102.972 310.457 102.011C310.12 101.05 310.04 99.9971 310.227 98.9845C310.414 97.972 310.86 97.0442 311.509 96.3167C312.419 95.3364 313.634 94.8046 314.889 94.8378C316.145 94.8709 317.337 95.4664 318.205 96.4937Z" fill="white"/>
<path d="M338.415 100.21C338.376 101.242 338.07 102.237 337.535 103.074C337.001 103.91 336.261 104.55 335.408 104.914C334.555 105.279 333.626 105.351 332.737 105.123C331.848 104.894 331.037 104.375 330.407 103.63C329.776 102.885 329.352 101.946 329.188 100.93C329.024 99.9141 329.127 98.8662 329.485 97.9163C329.842 96.9663 330.438 96.1562 331.198 95.5865C331.959 95.0167 332.85 94.7125 333.762 94.7115C335.022 94.7447 336.219 95.3419 337.091 96.3724C337.963 97.4029 338.439 98.7827 338.415 100.21Z" fill="white"/>
<path d="M450.685 572.756C450.685 572.933 373.19 573.085 277.627 573.085C182.064 573.085 104.536 572.933 104.536 572.756C104.536 572.579 182.02 572.428 277.627 572.428C373.235 572.428 450.685 572.592 450.685 572.756Z" fill="#263238"/>
<path d="M375.177 418.017C357.934 404.379 354.028 379.061 354.709 356.296C354.821 352.504 354.453 348.485 356.048 345.161C357.644 341.836 361.372 339.548 364.374 341.141C366.862 342.468 367.945 345.755 369.34 348.472C371.201 352.092 373.929 355.041 377.208 356.979C379.339 358.243 381.984 359.001 384.094 357.687C386.995 355.879 387.33 351.367 387.308 347.575C387.308 340.522 387.27 333.477 387.196 326.441C386.995 322.662 387.335 318.872 388.2 315.216C389.238 311.627 391.548 308.302 394.707 307.291C397.865 306.28 401.804 308.365 402.519 312.056C402.642 313.62 402.675 315.19 402.619 316.758C402.708 318.338 403.356 320.07 404.661 320.55C405.967 321.031 407.329 319.931 408.333 318.819C411.77 315.027 414.114 310.085 416.29 305.205C418.466 300.326 420.598 295.308 423.723 291.15C426.847 286.991 431.166 283.692 435.999 283.376C440.831 283.06 445.864 286.422 447.069 291.731C448.275 297.04 445.54 302.463 442.605 306.773C438.176 313.171 432.956 318.812 427.104 323.521C425.962 324.227 425.05 325.331 424.504 326.668C423.778 329.196 425.888 331.724 428.086 332.521C430.575 333.456 433.276 333.165 435.898 333.519C438.521 333.873 441.311 335.162 442.304 337.943C443.666 341.811 440.809 345.856 438.008 348.51C432.383 353.819 425.996 357.996 419.125 360.859C416.67 361.871 414.092 362.768 412.105 364.715C410.119 366.661 408.936 370.061 410.13 372.728C411.324 375.395 414.393 376.242 416.971 375.699C419.549 375.155 421.837 373.588 424.292 372.539C428.879 370.58 434.793 370.934 437.684 375.421C438.579 376.966 439.146 378.726 439.34 380.562C439.533 382.398 439.349 384.259 438.8 386C437.683 389.465 435.964 392.642 433.744 395.341C426.435 405.233 416.938 412.748 406.224 417.12C395.588 421.291 385.734 422.429 375.166 418.043" fill="#56E7D5"/>
<path d="M442.159 286.498C442.159 286.498 442.059 286.625 441.836 286.852L440.842 287.851C439.972 288.736 438.688 290.025 437.07 291.731C432.482 296.556 428.222 301.766 424.326 307.316C421.837 310.818 419.259 314.787 416.514 319.097C413.768 323.407 410.934 328.059 408.121 333.001C405.123 338.213 402.377 343.605 399.896 349.155C398.602 352.049 397.463 355.07 396.292 358.154L392.832 367.571C388.272 379.433 384.3 391.573 380.935 403.937C378.225 414.052 376.357 424.433 375.355 434.942C374.706 442.035 374.602 449.178 375.043 456.291C375.222 458.819 375.389 460.753 375.545 462.068C375.612 462.7 375.657 463.205 375.701 463.572V464.09C375.653 463.926 375.62 463.757 375.601 463.585C375.545 463.218 375.478 462.725 375.389 462.093C375.188 460.829 374.976 458.832 374.775 456.304C374.237 449.178 374.274 442.011 374.887 434.892C375.826 424.337 377.654 413.908 380.344 403.747C383.68 391.349 387.641 379.178 392.207 367.293L395.756 357.914C396.928 354.843 398.077 351.797 399.383 348.889C401.881 343.323 404.649 337.917 407.675 332.697C410.532 327.641 413.411 323.066 416.123 318.793C418.835 314.521 421.457 310.527 423.935 307.038C427.871 301.503 432.189 296.329 436.847 291.567C438.499 289.886 439.816 288.622 440.708 287.775L441.746 286.827C441.873 286.701 442.012 286.591 442.159 286.498Z" fill="#263238"/>
<path d="M399.528 348.864C399.37 348.343 399.262 347.805 399.204 347.259C399.026 346.21 398.825 344.731 398.59 342.81C398.111 339.018 397.62 333.822 397.095 328.071C396.57 322.32 395.979 317.112 395.488 313.358C395.231 311.488 395.008 309.983 394.852 308.934C394.73 308.397 394.666 307.846 394.662 307.291C394.854 307.798 394.993 308.328 395.075 308.871C395.321 309.908 395.6 311.399 395.912 313.283C396.548 317.075 397.173 322.232 397.698 327.995C398.222 333.759 398.669 338.815 399.015 342.746C399.182 344.516 399.327 346.02 399.439 347.221C399.525 347.763 399.555 348.314 399.528 348.864Z" fill="#263238"/>
<path d="M442.472 339.788C441.928 339.922 441.375 339.999 440.82 340.016C439.704 340.13 438.119 340.281 436.155 340.534C432.227 341.015 426.825 341.899 420.899 343.163C414.973 344.427 409.65 345.856 405.822 346.955C403.914 347.512 402.374 348.017 401.358 348.358C400.816 348.577 400.255 348.729 399.684 348.813C400.2 348.52 400.738 348.279 401.291 348.093C402.34 347.676 403.858 347.094 405.755 346.475C409.561 345.211 414.884 343.707 420.832 342.418C425.871 341.326 430.955 340.525 436.066 340.016C438.041 339.826 439.637 339.751 440.753 339.725C441.326 339.681 441.902 339.702 442.472 339.788Z" fill="#263238"/>
<path d="M380.89 402.862C380.771 402.679 380.674 402.479 380.6 402.268L379.864 400.511C379.228 398.982 378.368 396.719 377.342 393.951C375.266 388.389 372.621 380.603 369.809 371.957C366.996 363.312 364.407 355.525 362.443 349.9C361.483 347.17 360.691 344.933 360.099 343.264L359.474 341.457C359.388 341.249 359.328 341.027 359.296 340.8C359.415 340.983 359.512 341.182 359.586 341.394L360.323 343.151C360.948 344.68 361.818 346.943 362.845 349.711C364.921 355.273 367.565 363.059 370.378 371.705C373.19 380.35 375.779 388.136 377.743 393.761C378.703 396.492 379.495 398.729 380.076 400.397C380.332 401.118 380.545 401.661 380.712 402.205C380.799 402.413 380.859 402.635 380.89 402.862Z" fill="#263238"/>
<path d="M437.896 382.044C437.717 382.16 437.526 382.249 437.327 382.309L435.675 382.941L429.57 385.179C424.415 387.075 417.294 389.78 409.482 392.763C401.67 395.746 394.517 398.4 389.327 400.17C386.738 401.067 384.629 401.75 383.167 402.205L381.482 402.698C381.286 402.768 381.084 402.815 380.879 402.837C381.058 402.721 381.249 402.631 381.449 402.571L383.1 401.939L389.205 399.702C394.361 397.806 401.481 395.101 409.293 392.118C417.105 389.135 424.247 386.481 429.437 384.711C432.037 383.814 434.135 383.131 435.608 382.676L437.293 382.183C437.489 382.113 437.691 382.066 437.896 382.044Z" fill="#263238"/>
<path d="M414.639 75.4355L408.891 77.7613L406.425 69.2546C401.894 53.5683 387.453 45.2386 374.184 50.5347C360.915 55.8309 353.85 73.0339 358.381 88.7202L360.848 97.2269L355.078 99.5653C352.878 100.532 351.091 102.421 350.089 104.841C349.088 107.261 348.948 110.025 349.699 112.559L365.691 167.91C366.023 169.164 366.574 170.33 367.312 171.338C368.049 172.347 368.959 173.177 369.985 173.779C371.011 174.382 372.134 174.744 373.287 174.846C374.44 174.947 375.599 174.785 376.695 174.369L436.256 150.239C438.485 149.274 440.297 147.368 441.31 144.921C442.324 142.474 442.46 139.677 441.691 137.119L425.687 81.7682C425.347 80.5174 424.787 79.3571 424.042 78.3566C423.297 77.3561 422.381 76.5359 421.35 75.9448C420.319 75.3538 419.193 75.0041 418.04 74.9166C416.887 74.8291 415.73 75.0056 414.639 75.4355ZM369.24 84.2835C368.018 80.2049 368.237 75.749 369.852 71.8494C371.466 67.9498 374.35 64.9091 377.9 63.3643C379.653 62.6851 381.508 62.4127 383.356 62.5634C385.204 62.7142 387.006 63.2849 388.655 64.2416C390.304 65.1983 391.765 66.5214 392.953 68.1319C394.14 69.7424 395.029 71.6073 395.566 73.6154L398.022 82.1221L371.695 92.7902L369.24 84.2835ZM402.72 133.403L406.804 147.534C406.879 147.817 406.855 148.123 406.737 148.386C406.618 148.65 406.415 148.852 406.168 148.95L400.443 151.263C400.215 151.334 399.972 151.303 399.764 151.176C399.556 151.049 399.399 150.835 399.327 150.58L395.209 136.512C392.939 136.372 390.76 135.449 388.965 133.868C387.17 132.287 385.844 130.122 385.165 127.664C384.195 124.414 384.372 120.865 385.659 117.76C386.947 114.654 389.245 112.234 392.073 111.004C393.47 110.464 394.948 110.248 396.419 110.368C397.891 110.489 399.326 110.943 400.639 111.705C401.953 112.467 403.117 113.521 404.063 114.803C405.009 116.086 405.717 117.571 406.146 119.17C406.864 121.667 406.923 124.347 406.317 126.882C405.71 129.417 404.464 131.696 402.731 133.44L402.72 133.403Z" fill="#56E7D5"/>
<path d="M408.635 77.6096C408.635 77.7866 397.977 82.3243 384.719 87.7216C371.461 93.1189 360.647 97.4544 360.591 97.328C360.535 97.2016 371.249 92.6259 384.518 87.216C397.787 81.8061 408.579 77.4453 408.635 77.6096Z" fill="#263238"/>
<path d="M421.29 79.9354C421.339 80.0451 421.38 80.1593 421.413 80.2767C421.502 80.5295 421.602 80.8581 421.736 81.2626C422.027 82.1853 422.428 83.462 422.93 85.0546L427.216 99.1861C429.002 105.178 431.133 112.281 433.499 120.169C434.615 124.125 435.932 128.245 437.159 132.581C437.817 134.815 438.1 137.168 437.996 139.52C437.902 140.744 437.595 141.933 437.093 143.022C436.556 144.106 435.84 145.063 434.983 145.84C433.259 147.266 431.345 148.371 429.314 149.114L423.567 151.453L412.686 155.864L394.26 163.296L381.817 168.251L378.469 169.515L377.576 169.844C377.481 169.892 377.379 169.922 377.275 169.932C377.275 169.932 377.364 169.932 377.554 169.781L378.424 169.389L381.772 167.96L394.149 162.803L412.541 155.219L423.399 150.77L429.147 148.419C431.12 147.706 432.978 146.634 434.648 145.246C435.446 144.525 436.113 143.637 436.613 142.63C437.085 141.623 437.37 140.518 437.45 139.381C437.552 137.115 437.28 134.847 436.646 132.695C435.441 128.397 434.169 124.239 433.019 120.282C430.698 112.382 428.555 105.253 426.859 99.262C425.162 93.2706 423.734 88.4548 422.752 85.0673C422.283 83.4114 421.926 82.1221 421.636 81.1868L421.368 80.1756C421.334 80.099 421.308 80.0185 421.29 79.9354Z" fill="#263238"/>
<path d="M389.863 62.5048C389.863 62.5048 389.272 62.1762 388.178 61.6706C386.619 60.9921 384.97 60.6161 383.301 60.5582C380.827 60.4621 378.365 60.9888 376.092 62.1003C373.328 63.4844 370.965 65.723 369.273 68.5594C367.57 71.3876 366.657 74.7299 366.65 78.1531C366.674 80.9589 367.05 83.7465 367.766 86.4323C368.347 88.7328 368.949 90.5656 369.351 91.8422C369.588 92.4907 369.782 93.1582 369.932 93.8394C369.615 93.2331 369.349 92.594 369.139 91.9307C368.682 90.6667 368.023 88.8718 367.376 86.5587C366.581 83.8448 366.149 81.0117 366.092 78.1531C366.063 74.6005 366.998 71.1235 368.771 68.1928C370.521 65.2529 372.981 62.945 375.857 61.5442C378.201 60.4266 380.74 59.9336 383.279 60.1032C384.984 60.2016 386.66 60.6514 388.223 61.4304C388.641 61.6488 389.044 61.9023 389.428 62.1888C389.587 62.2678 389.734 62.3744 389.863 62.5048Z" fill="#263238"/>
<path d="M390.377 111.965C390.555 111.843 390.742 111.737 390.935 111.649C391.493 111.364 392.072 111.131 392.665 110.954C393.605 110.639 394.576 110.453 395.555 110.398C396.887 110.317 398.22 110.545 399.472 111.068C402.329 112.205 404.952 115.504 406.246 119.916C406.867 122.283 406.867 124.804 406.246 127.171C405.558 129.74 404.324 132.08 402.653 133.984L402.72 133.643C404.204 138.256 405.822 143.262 407.496 148.482L407.597 148.798L407.318 148.912L404.762 149.872L399.182 151.983L398.903 152.084L398.814 151.768C397.285 146.535 395.611 141.656 394.35 136.866L394.595 137.081C392.414 136.875 390.333 135.948 388.614 134.414C387.058 133.056 385.782 131.331 384.875 129.358C384.057 127.608 383.649 125.649 383.692 123.67C383.744 121.647 384.19 119.661 384.998 117.856C385.806 116.051 386.957 114.471 388.368 113.229C388.949 112.695 389.6 112.269 390.299 111.965C389.668 112.389 389.057 112.849 388.468 113.343C386.919 114.828 385.731 116.738 385.02 118.892C384.409 120.516 384.124 122.272 384.184 124.036C384.243 125.8 384.647 127.526 385.366 129.092C386.258 130.991 387.503 132.647 389.015 133.946C390.656 135.404 392.639 136.284 394.718 136.474H394.908L394.964 136.664C396.191 141.366 397.876 146.283 399.428 151.541L399.059 151.339L404.639 149.228L407.184 148.255L407.005 148.684C405.342 143.464 403.735 138.446 402.262 133.832V133.643L402.396 133.491C404.019 131.666 405.228 129.424 405.923 126.956C406.515 124.692 406.515 122.281 405.923 120.017C404.706 115.77 402.195 112.547 399.472 111.409C398.267 110.882 396.98 110.637 395.689 110.688C394.725 110.713 393.767 110.862 392.832 111.131C391.169 111.599 390.388 112.028 390.377 111.965Z" fill="#263238"/>
<path d="M355.881 476.932L244.404 476.351C237.966 476.311 231.806 473.378 227.275 468.198C222.745 463.017 220.216 456.011 220.242 448.72L221.425 132.202C221.439 128.589 222.08 125.015 223.314 121.684C224.547 118.352 226.348 115.329 228.614 112.786C230.879 110.244 233.565 108.232 236.518 106.865C239.47 105.499 242.632 104.805 245.821 104.823L357.287 105.405C363.725 105.442 369.887 108.371 374.419 113.549C378.951 118.728 381.483 125.732 381.46 133.023L380.277 449.529C380.264 453.143 379.622 456.718 378.389 460.051C377.156 463.384 375.355 466.409 373.09 468.953C370.825 471.498 368.139 473.512 365.186 474.881C362.233 476.25 359.072 476.947 355.881 476.932Z" fill="#455A64"/>
<path d="M357.12 116.288H335.514C334.809 116.303 334.114 116.475 333.467 116.794C332.821 117.113 332.237 117.574 331.747 118.149C331.258 118.724 330.874 119.403 330.616 120.146C330.359 120.889 330.233 121.683 330.246 122.481V126.918C330.26 127.716 330.134 128.509 329.876 129.252C329.619 129.994 329.234 130.672 328.745 131.246C328.256 131.82 327.671 132.28 327.025 132.598C326.379 132.916 325.683 133.086 324.979 133.099L282.861 132.884C281.436 132.841 280.085 132.159 279.103 130.989C278.122 129.818 277.591 128.254 277.627 126.64V122.203C277.663 120.592 277.134 119.03 276.155 117.859C275.176 116.689 273.827 116.006 272.404 115.959H264.804L245.888 115.858C241.389 115.828 237.062 117.818 233.856 121.393C230.649 124.968 228.824 129.836 228.78 134.932L227.664 443.879C227.653 446.407 228.083 448.912 228.928 451.252C229.772 453.593 231.016 455.721 232.587 457.517C234.158 459.313 236.026 460.741 238.084 461.719C240.142 462.697 242.35 463.206 244.582 463.218L355.825 463.799C358.059 463.811 360.272 463.324 362.34 462.367C364.407 461.41 366.288 460 367.875 458.22C369.461 456.439 370.722 454.322 371.587 451.99C372.451 449.657 372.901 447.154 372.911 444.625L374.027 135.678C374.054 130.567 372.288 125.654 369.117 122.018C365.947 118.383 361.632 116.321 357.12 116.288Z" fill="white"/>
<path d="M342.154 422.58L259.436 422.176C258.577 422.176 257.885 421.114 257.896 419.825L257.985 395.316C257.985 394.052 258.689 392.965 259.548 392.965L342.266 393.395C342.742 393.488 343.168 393.786 343.455 394.226C343.742 394.667 343.868 395.215 343.806 395.758L343.728 420.242C343.728 421.544 343.013 422.593 342.154 422.58Z" fill="#56E7D5"/>
<path d="M286.883 404.641C286.839 404.271 286.662 403.984 286.35 403.779C286.039 403.575 285.657 403.473 285.204 403.473C284.873 403.473 284.584 403.526 284.336 403.633C284.09 403.74 283.898 403.888 283.759 404.075C283.623 404.262 283.554 404.475 283.554 404.714C283.554 404.913 283.602 405.085 283.697 405.228C283.794 405.369 283.918 405.487 284.069 405.582C284.22 405.675 284.378 405.751 284.544 405.812C284.709 405.871 284.861 405.918 285 405.955L285.759 406.159C285.954 406.21 286.17 406.281 286.409 406.371C286.65 406.461 286.879 406.584 287.098 406.739C287.32 406.893 287.502 407.09 287.646 407.331C287.789 407.571 287.861 407.867 287.861 408.218C287.861 408.621 287.755 408.986 287.544 409.312C287.334 409.639 287.028 409.898 286.624 410.09C286.222 410.282 285.735 410.378 285.16 410.378C284.625 410.378 284.162 410.292 283.77 410.119C283.38 409.946 283.074 409.705 282.85 409.396C282.629 409.087 282.503 408.728 282.474 408.32H283.408C283.433 408.602 283.528 408.836 283.693 409.02C283.861 409.203 284.073 409.339 284.328 409.429C284.586 409.517 284.864 409.561 285.16 409.561C285.506 409.561 285.816 409.505 286.091 409.393C286.366 409.278 286.584 409.12 286.744 408.918C286.905 408.714 286.985 408.475 286.985 408.203C286.985 407.955 286.916 407.753 286.777 407.597C286.639 407.441 286.456 407.315 286.23 407.217C286.004 407.12 285.759 407.035 285.496 406.962L284.576 406.699C283.992 406.531 283.53 406.292 283.189 405.98C282.849 405.669 282.679 405.261 282.679 404.757C282.679 404.339 282.792 403.974 283.018 403.663C283.247 403.349 283.553 403.105 283.938 402.933C284.325 402.757 284.756 402.67 285.233 402.67C285.715 402.67 286.143 402.756 286.518 402.929C286.893 403.099 287.19 403.333 287.409 403.63C287.63 403.927 287.747 404.264 287.759 404.641H286.883ZM290.255 402.772V410.247H289.349V402.772H290.255ZM297.997 402.772V410.247H297.121L293.048 404.378H292.975V410.247H292.07V402.772H292.945L297.033 408.655H297.106V402.772H297.997ZM304.918 405.108C304.838 404.862 304.732 404.642 304.6 404.447C304.471 404.25 304.317 404.082 304.137 403.944C303.959 403.805 303.757 403.699 303.531 403.626C303.305 403.553 303.056 403.517 302.786 403.517C302.344 403.517 301.941 403.631 301.578 403.86C301.216 404.088 300.927 404.425 300.713 404.871C300.499 405.316 300.392 405.862 300.392 406.509C300.392 407.157 300.5 407.703 300.717 408.148C300.933 408.593 301.227 408.93 301.597 409.159C301.966 409.388 302.382 409.502 302.845 409.502C303.273 409.502 303.65 409.411 303.976 409.229C304.305 409.044 304.56 408.783 304.743 408.447C304.928 408.109 305.02 407.711 305.02 407.254L305.297 407.312H303.049V406.509H305.896V407.312C305.896 407.928 305.765 408.463 305.502 408.918C305.241 409.373 304.881 409.726 304.422 409.977C303.964 410.225 303.438 410.349 302.845 410.349C302.183 410.349 301.601 410.193 301.1 409.882C300.601 409.57 300.212 409.128 299.932 408.553C299.655 407.979 299.516 407.298 299.516 406.509C299.516 405.918 299.595 405.386 299.753 404.914C299.914 404.44 300.14 404.036 300.432 403.703C300.724 403.369 301.07 403.114 301.469 402.936C301.868 402.759 302.307 402.67 302.786 402.67C303.181 402.67 303.548 402.729 303.889 402.849C304.232 402.965 304.537 403.132 304.805 403.349C305.075 403.563 305.3 403.819 305.48 404.119C305.66 404.416 305.784 404.745 305.852 405.108H304.918ZM287.701 414.772H288.606V419.721C288.606 420.232 288.485 420.688 288.245 421.09C288.006 421.489 287.669 421.804 287.234 422.035C286.798 422.264 286.287 422.378 285.701 422.378C285.114 422.378 284.603 422.264 284.168 422.035C283.732 421.804 283.394 421.489 283.153 421.09C282.915 420.688 282.795 420.232 282.795 419.721V414.772H283.7V419.648C283.7 420.013 283.781 420.338 283.941 420.623C284.102 420.905 284.331 421.128 284.628 421.291C284.927 421.451 285.284 421.531 285.701 421.531C286.117 421.531 286.474 421.451 286.774 421.291C287.073 421.128 287.302 420.905 287.46 420.623C287.62 420.338 287.701 420.013 287.701 419.648V414.772ZM290.413 422.247V414.772H292.939C293.526 414.772 294.005 414.878 294.377 415.089C294.752 415.299 295.029 415.582 295.209 415.94C295.389 416.298 295.479 416.697 295.479 417.137C295.479 417.577 295.389 417.978 295.209 418.338C295.032 418.698 294.757 418.985 294.384 419.199C294.012 419.411 293.535 419.517 292.954 419.517H291.143V418.714H292.925C293.326 418.714 293.648 418.644 293.892 418.506C294.135 418.367 294.311 418.18 294.421 417.944C294.533 417.705 294.589 417.436 294.589 417.137C294.589 416.838 294.533 416.57 294.421 416.334C294.311 416.098 294.134 415.913 293.888 415.779C293.642 415.643 293.316 415.575 292.91 415.575H291.319V422.247H290.413Z" fill="#E8E8E3"/>
<path d="M275.936 207.107L247.232 206.959L247.209 212.925L275.912 213.073L275.936 207.107Z" fill="#56E7D5"/>
<path opacity="0.1" d="M275.936 207.107L247.232 206.959L247.209 212.925L275.912 213.073L275.936 207.107Z" fill="black"/>
<path d="M360.077 243.737C360.303 243.711 360.524 243.652 360.736 243.56C361.045 243.423 361.313 243.191 361.511 242.889C361.708 242.587 361.826 242.228 361.852 241.854C361.852 239.844 361.852 236.911 361.852 233.145C361.852 231.261 361.852 229.15 361.852 226.825C361.852 226.256 361.852 225.662 361.852 225.068C361.925 224.491 361.814 223.904 361.539 223.412C361.386 223.176 361.186 222.983 360.955 222.85C360.725 222.716 360.47 222.644 360.211 222.641H358.47H342.344L249.002 222.249C248.763 222.244 248.527 222.305 248.313 222.426C248.099 222.547 247.914 222.725 247.774 222.944C247.505 223.439 247.402 224.027 247.484 224.6C247.484 225.864 247.484 227.128 247.484 228.392C247.484 230.92 247.484 233.448 247.484 235.976C247.484 237.24 247.484 238.504 247.484 239.768C247.438 240.357 247.438 240.949 247.484 241.538C247.543 241.79 247.652 242.024 247.803 242.221C247.954 242.418 248.142 242.574 248.355 242.675C248.575 242.774 248.81 242.822 249.047 242.814H254.727L279.513 242.966L321.475 243.257L349.766 243.51L357.455 243.611H359.452C359.91 243.611 360.133 243.611 360.133 243.611H359.452H357.455H349.766H321.475L279.513 243.459L254.727 243.345H249.047C248.734 243.36 248.422 243.299 248.131 243.168C247.838 243.026 247.576 242.81 247.367 242.536C247.159 242.262 247.008 241.938 246.926 241.588C246.862 241.257 246.839 240.916 246.859 240.577V239.642C246.859 238.378 246.859 237.114 246.859 235.85C246.859 233.322 246.859 230.794 246.859 228.266C246.859 227.002 246.859 225.738 246.859 224.474C246.838 224.137 246.838 223.799 246.859 223.462C246.901 223.091 247.028 222.738 247.228 222.439C247.42 222.134 247.675 221.886 247.97 221.716C248.266 221.547 248.593 221.461 248.924 221.465L342.266 222.047L358.392 222.173H360.133C360.44 222.173 360.742 222.257 361.014 222.418C361.286 222.579 361.52 222.811 361.696 223.096C362.01 223.645 362.137 224.306 362.053 224.954C362.053 225.548 362.053 226.142 362.053 226.711C362.053 229.011 362.053 231.122 362.053 233.031C362.053 236.823 361.975 239.73 361.952 241.753C361.925 242.141 361.8 242.513 361.593 242.825C361.385 243.136 361.103 243.374 360.781 243.51C360.569 243.658 360.326 243.737 360.077 243.737Z" fill="#E0E0E0"/>
<path d="M308.351 228.594H255.854V234.169H308.351V228.594Z" fill="#56E7D5"/>
<path opacity="0.2" d="M308.351 228.594H255.854V234.169H308.351V228.594Z" fill="white"/>
<path d="M275.74 261.533L247.037 261.385L247.013 267.351L275.716 267.499L275.74 261.533Z" fill="#56E7D5"/>
<path opacity="0.1" d="M275.74 261.533L247.037 261.385L247.013 267.351L275.716 267.499L275.74 261.533Z" fill="black"/>
<path d="M359.352 298.165C359.577 298.133 359.801 298.087 360.021 298.026C360.333 297.913 360.62 297.727 360.862 297.478C361.105 297.23 361.298 296.925 361.427 296.585C361.603 296.075 361.672 295.525 361.628 294.98C361.628 294.373 361.628 293.716 361.628 292.982C361.628 291.516 361.628 289.848 361.628 287.926V279.9C361.681 279.319 361.568 278.734 361.305 278.232C361.029 277.716 360.596 277.334 360.088 277.157C359.532 277.045 358.966 277.011 358.403 277.056H342.344L249.325 276.664C248.825 276.666 248.342 276.873 247.966 277.247C247.591 277.621 247.348 278.137 247.283 278.699C247.283 279.9 247.283 281.227 247.283 282.491C247.283 285.019 247.283 287.547 247.283 290.075C247.283 291.339 247.283 292.603 247.283 293.867C247.241 294.458 247.264 295.052 247.35 295.637C247.489 296.149 247.776 296.594 248.164 296.901C248.577 297.197 249.061 297.339 249.548 297.305H251.1H254.325L279.022 297.444L320.838 297.735L349.029 297.988L356.695 298.089H358.693H359.363H358.693H356.695H349.029H320.838L279 298.038L254.302 297.937H249.448C248.844 297.978 248.245 297.796 247.74 297.419C247.233 297.021 246.862 296.436 246.691 295.763C246.591 295.121 246.561 294.467 246.602 293.817C246.602 292.553 246.602 291.289 246.602 290.025C246.602 287.497 246.602 284.969 246.602 282.441C246.602 281.177 246.602 279.913 246.602 278.649C246.684 277.926 246.995 277.262 247.477 276.78C247.96 276.298 248.581 276.033 249.225 276.032L342.243 276.614L358.303 276.753C358.901 276.711 359.501 276.758 360.088 276.892C360.668 277.106 361.157 277.557 361.461 278.156C361.75 278.712 361.875 279.359 361.818 280.001C361.818 280.595 361.818 281.177 361.818 281.758C361.818 284.046 361.818 286.144 361.818 288.078C361.818 290.012 361.818 291.643 361.818 293.134C361.818 293.855 361.818 294.525 361.818 295.144C361.858 295.709 361.778 296.277 361.584 296.8C361.439 297.149 361.229 297.458 360.969 297.706C360.709 297.955 360.405 298.137 360.077 298.241C359.833 298.264 359.588 298.238 359.352 298.165Z" fill="#E0E0E0"/>
<path d="M275.524 318.323L246.82 318.175L246.796 324.141L275.5 324.289L275.524 318.323Z" fill="#56E7D5"/>
<path opacity="0.1" d="M275.524 318.323L246.82 318.175L246.796 324.141L275.5 324.289L275.524 318.323Z" fill="black"/>
<path d="M359.129 354.931C359.354 354.901 359.578 354.855 359.798 354.792C360.108 354.68 360.394 354.495 360.637 354.249C360.879 354.003 361.073 353.701 361.204 353.364C361.379 352.853 361.448 352.304 361.405 351.759C361.405 351.139 361.405 350.495 361.405 349.749C361.405 348.295 361.405 346.614 361.405 344.693V336.666C361.458 336.085 361.345 335.5 361.082 334.998C360.8 334.492 360.369 334.116 359.865 333.936C359.31 333.819 358.744 333.781 358.18 333.822H342.121L249.102 333.431C248.602 333.432 248.119 333.639 247.743 334.013C247.368 334.388 247.125 334.904 247.06 335.466C247.06 336.73 247.06 337.994 247.06 339.258C247.06 341.786 247.06 344.314 247.06 346.842C247.06 348.106 247.06 349.37 247.06 350.634C247.018 351.22 247.041 351.81 247.127 352.391C247.26 352.906 247.549 353.353 247.941 353.655C248.351 353.958 248.837 354.1 249.325 354.059H254.18L278.877 354.211L320.694 354.501L348.884 354.754L356.551 354.855H358.548C358.995 354.855 359.218 354.855 359.218 354.855C359.218 354.855 358.995 354.855 358.548 354.855H356.551H348.884H320.694L278.877 354.716L254.18 354.603H249.325C248.721 354.649 248.121 354.466 247.618 354.084C247.11 353.686 246.739 353.101 246.569 352.429C246.469 351.786 246.439 351.132 246.48 350.482C246.48 349.218 246.48 347.954 246.48 346.69C246.48 344.162 246.48 341.634 246.48 339.106C246.48 337.842 246.48 336.578 246.48 335.251C246.558 334.529 246.867 333.865 247.348 333.383C247.829 332.901 248.449 332.635 249.091 332.634L342.11 333.216L358.169 333.355C358.767 333.313 359.367 333.36 359.954 333.494C360.534 333.708 361.023 334.159 361.327 334.758C361.616 335.315 361.741 335.961 361.684 336.603C361.684 337.197 361.684 337.791 361.684 338.36C361.684 340.648 361.684 342.746 361.684 344.68C361.684 346.614 361.684 348.245 361.684 349.736C361.684 350.457 361.684 351.127 361.684 351.746C361.727 352.311 361.647 352.88 361.45 353.402C361.305 353.751 361.095 354.06 360.835 354.309C360.575 354.557 360.271 354.739 359.943 354.843C359.682 354.944 359.402 354.974 359.129 354.931Z" fill="#E0E0E0"/>
<path d="M307.23 284.598L254.734 284.328L254.712 289.903L307.208 290.172L307.23 284.598Z" fill="#56E7D5"/>
<path opacity="0.2" d="M307.23 284.598L254.734 284.328L254.712 289.903L307.208 290.172L307.23 284.598Z" fill="white"/>
<path d="M259.481 344.617C259.448 345.125 259.284 345.612 259.009 346.015C258.735 346.419 258.361 346.723 257.936 346.889C257.51 347.054 257.051 347.075 256.615 346.948C256.179 346.821 255.786 346.552 255.484 346.174C255.182 345.796 254.984 345.325 254.916 344.822C254.847 344.318 254.911 343.802 255.099 343.339C255.287 342.876 255.591 342.485 255.973 342.216C256.355 341.946 256.799 341.81 257.249 341.823C257.871 341.863 258.454 342.178 258.872 342.701C259.289 343.224 259.508 343.912 259.481 344.617Z" fill="#56E7D5"/>
<path d="M266.59 344.655C266.612 345.011 266.569 345.369 266.464 345.705C266.358 346.042 266.193 346.351 265.978 346.612C265.763 346.873 265.502 347.082 265.213 347.224C264.924 347.366 264.612 347.44 264.297 347.44C263.981 347.44 263.669 347.366 263.38 347.224C263.091 347.082 262.83 346.873 262.615 346.612C262.4 346.351 262.235 346.042 262.129 345.705C262.024 345.369 261.981 345.011 262.003 344.655C261.981 344.298 262.024 343.941 262.129 343.604C262.235 343.267 262.4 342.959 262.615 342.698C262.83 342.436 263.091 342.228 263.38 342.086C263.669 341.943 263.981 341.87 264.297 341.87C264.612 341.87 264.924 341.943 265.213 342.086C265.502 342.228 265.763 342.436 265.978 342.698C266.193 342.959 266.358 343.267 266.464 343.604C266.569 343.941 266.612 344.298 266.59 344.655Z" fill="#56E7D5"/>
<path d="M273.71 344.693C273.677 345.201 273.513 345.687 273.238 346.091C272.964 346.495 272.59 346.799 272.165 346.965C271.739 347.13 271.28 347.151 270.844 347.024C270.408 346.897 270.015 346.627 269.713 346.249C269.411 345.871 269.213 345.401 269.145 344.897C269.076 344.393 269.14 343.878 269.328 343.415C269.516 342.951 269.82 342.561 270.202 342.292C270.584 342.022 271.028 341.886 271.478 341.899C272.099 341.942 272.68 342.258 273.097 342.78C273.514 343.302 273.734 343.989 273.71 344.693Z" fill="#56E7D5"/>
<path d="M280.819 344.731C280.786 345.239 280.622 345.725 280.347 346.129C280.072 346.533 279.699 346.837 279.274 347.002C278.848 347.168 278.389 347.189 277.953 347.062C277.517 346.935 277.123 346.665 276.821 346.287C276.519 345.909 276.322 345.439 276.254 344.935C276.185 344.431 276.249 343.916 276.437 343.453C276.625 342.989 276.929 342.599 277.311 342.33C277.693 342.06 278.137 341.924 278.587 341.937C279.208 341.98 279.789 342.296 280.206 342.818C280.623 343.34 280.843 344.027 280.819 344.731Z" fill="#56E7D5"/>
<path d="M287.928 344.756C287.897 345.265 287.735 345.753 287.461 346.159C287.188 346.564 286.815 346.87 286.39 347.037C285.964 347.205 285.504 347.227 285.068 347.102C284.631 346.976 284.236 346.707 283.933 346.33C283.63 345.952 283.432 345.482 283.363 344.977C283.294 344.473 283.357 343.957 283.545 343.493C283.732 343.029 284.036 342.638 284.419 342.368C284.801 342.098 285.246 341.962 285.696 341.975C286.315 342.018 286.894 342.332 287.311 342.852C287.728 343.371 287.95 344.054 287.928 344.756Z" fill="#56E7D5"/>
<path d="M295.048 344.794C295.017 345.3 294.857 345.786 294.586 346.19C294.315 346.595 293.945 346.901 293.523 347.071C293.101 347.241 292.643 347.267 292.208 347.146C291.773 347.026 291.378 346.763 291.072 346.392C290.767 346.02 290.563 345.556 290.488 345.055C290.412 344.555 290.468 344.04 290.647 343.575C290.826 343.11 291.122 342.714 291.497 342.436C291.873 342.159 292.312 342.012 292.76 342.013C293.388 342.039 293.982 342.347 294.411 342.868C294.84 343.389 295.069 344.082 295.048 344.794Z" fill="#56E7D5"/>
<path d="M302.157 344.832C302.179 345.188 302.136 345.546 302.03 345.882C301.925 346.219 301.76 346.528 301.545 346.789C301.33 347.05 301.069 347.259 300.78 347.401C300.491 347.543 300.179 347.617 299.863 347.617C299.548 347.617 299.236 347.543 298.947 347.401C298.658 347.259 298.397 347.05 298.182 346.789C297.967 346.528 297.802 346.219 297.696 345.882C297.591 345.546 297.548 345.188 297.57 344.832C297.548 344.475 297.591 344.118 297.696 343.781C297.802 343.444 297.967 343.136 298.182 342.875C298.397 342.613 298.658 342.405 298.947 342.263C299.236 342.12 299.548 342.047 299.863 342.047C300.179 342.047 300.491 342.12 300.78 342.263C301.069 342.405 301.33 342.613 301.545 342.875C301.76 343.136 301.925 343.444 302.03 343.781C302.136 344.118 302.179 344.475 302.157 344.832Z" fill="#56E7D5"/>
<path d="M309.265 344.87C309.235 345.376 309.074 345.862 308.804 346.266C308.533 346.671 308.163 346.977 307.741 347.147C307.318 347.316 306.861 347.343 306.426 347.222C305.99 347.101 305.595 346.839 305.29 346.468C304.984 346.096 304.781 345.632 304.706 345.131C304.63 344.631 304.686 344.116 304.865 343.651C305.044 343.186 305.34 342.79 305.715 342.512C306.091 342.235 306.529 342.088 306.978 342.089C307.606 342.115 308.2 342.423 308.629 342.944C309.058 343.465 309.287 344.158 309.265 344.87Z" fill="#56E7D5"/>
<path d="M316.375 344.908C316.344 345.417 316.182 345.905 315.908 346.31C315.635 346.716 315.262 347.021 314.836 347.189C314.411 347.357 313.951 347.379 313.514 347.253C313.078 347.127 312.683 346.859 312.38 346.481C312.077 346.104 311.879 345.633 311.809 345.129C311.74 344.625 311.804 344.109 311.991 343.645C312.179 343.181 312.483 342.789 312.866 342.52C313.248 342.25 313.692 342.113 314.143 342.127C314.761 342.169 315.341 342.484 315.758 343.003C316.175 343.523 316.396 344.206 316.375 344.908Z" fill="#56E7D5"/>
<g opacity="0.2">
<path d="M259.481 344.617C259.448 345.125 259.284 345.612 259.009 346.015C258.735 346.419 258.361 346.723 257.936 346.889C257.51 347.054 257.051 347.075 256.615 346.948C256.179 346.821 255.786 346.552 255.484 346.174C255.182 345.796 254.984 345.325 254.916 344.822C254.847 344.318 254.911 343.802 255.099 343.339C255.287 342.876 255.591 342.485 255.973 342.216C256.355 341.946 256.799 341.81 257.249 341.823C257.871 341.863 258.454 342.178 258.872 342.701C259.289 343.224 259.508 343.912 259.481 344.617Z" fill="white"/>
<path d="M266.59 344.655C266.612 345.011 266.569 345.369 266.464 345.705C266.358 346.042 266.193 346.351 265.978 346.612C265.763 346.873 265.502 347.082 265.213 347.224C264.924 347.366 264.612 347.44 264.297 347.44C263.981 347.44 263.669 347.366 263.38 347.224C263.091 347.082 262.83 346.873 262.615 346.612C262.4 346.351 262.235 346.042 262.129 345.705C262.024 345.369 261.981 345.011 262.003 344.655C261.981 344.298 262.024 343.941 262.129 343.604C262.235 343.267 262.4 342.959 262.615 342.698C262.83 342.436 263.091 342.228 263.38 342.086C263.669 341.943 263.981 341.87 264.297 341.87C264.612 341.87 264.924 341.943 265.213 342.086C265.502 342.228 265.763 342.436 265.978 342.698C266.193 342.959 266.358 343.267 266.464 343.604C266.569 343.941 266.612 344.298 266.59 344.655Z" fill="white"/>
<path d="M273.71 344.693C273.677 345.201 273.513 345.687 273.238 346.091C272.964 346.495 272.59 346.799 272.165 346.965C271.739 347.13 271.28 347.151 270.844 347.024C270.408 346.897 270.015 346.627 269.713 346.249C269.411 345.871 269.213 345.401 269.145 344.897C269.076 344.393 269.14 343.878 269.328 343.415C269.516 342.951 269.82 342.561 270.202 342.292C270.584 342.022 271.028 341.886 271.478 341.899C272.099 341.942 272.68 342.258 273.097 342.78C273.514 343.302 273.734 343.989 273.71 344.693Z" fill="white"/>
<path d="M280.819 344.731C280.786 345.239 280.622 345.725 280.347 346.129C280.072 346.533 279.699 346.837 279.274 347.002C278.848 347.168 278.389 347.189 277.953 347.062C277.517 346.935 277.123 346.665 276.821 346.287C276.519 345.909 276.322 345.439 276.254 344.935C276.185 344.431 276.249 343.916 276.437 343.453C276.625 342.989 276.929 342.599 277.311 342.33C277.693 342.06 278.137 341.924 278.587 341.937C279.208 341.98 279.789 342.296 280.206 342.818C280.623 343.34 280.843 344.027 280.819 344.731Z" fill="white"/>
<path d="M287.928 344.756C287.897 345.265 287.734 345.753 287.461 346.159C287.187 346.564 286.815 346.87 286.389 347.037C285.964 347.205 285.504 347.227 285.067 347.102C284.63 346.976 284.236 346.707 283.933 346.33C283.63 345.952 283.431 345.482 283.362 344.977C283.293 344.473 283.356 343.957 283.544 343.493C283.732 343.029 284.036 342.638 284.418 342.368C284.801 342.098 285.245 341.962 285.696 341.975C286.314 342.018 286.894 342.332 287.311 342.852C287.728 343.371 287.949 344.054 287.928 344.756Z" fill="white"/>
<path d="M295.048 344.794C295.017 345.3 294.857 345.786 294.586 346.19C294.315 346.595 293.945 346.901 293.523 347.071C293.101 347.241 292.643 347.267 292.208 347.146C291.773 347.026 291.378 346.763 291.072 346.392C290.767 346.021 290.563 345.556 290.488 345.056C290.412 344.555 290.468 344.04 290.647 343.575C290.826 343.11 291.122 342.714 291.497 342.436C291.873 342.159 292.312 342.012 292.76 342.013C293.388 342.039 293.982 342.347 294.411 342.868C294.84 343.389 295.069 344.082 295.048 344.794Z" fill="white"/>
<path d="M302.157 344.832C302.179 345.188 302.136 345.546 302.03 345.882C301.925 346.219 301.76 346.528 301.545 346.789C301.33 347.05 301.069 347.259 300.78 347.401C300.491 347.543 300.179 347.617 299.863 347.617C299.548 347.617 299.236 347.543 298.947 347.401C298.658 347.259 298.397 347.05 298.182 346.789C297.967 346.528 297.802 346.219 297.696 345.882C297.591 345.546 297.548 345.188 297.57 344.832C297.548 344.475 297.591 344.118 297.696 343.781C297.802 343.444 297.967 343.136 298.182 342.875C298.397 342.613 298.658 342.405 298.947 342.263C299.236 342.12 299.548 342.047 299.863 342.047C300.179 342.047 300.491 342.12 300.78 342.263C301.069 342.405 301.33 342.613 301.545 342.875C301.76 343.136 301.925 343.444 302.03 343.781C302.136 344.118 302.179 344.475 302.157 344.832Z" fill="white"/>
<path d="M309.266 344.87C309.235 345.376 309.075 345.862 308.804 346.266C308.533 346.671 308.164 346.977 307.741 347.147C307.319 347.316 306.862 347.343 306.426 347.222C305.991 347.101 305.596 346.839 305.29 346.468C304.985 346.096 304.782 345.632 304.706 345.131C304.631 344.631 304.686 344.116 304.865 343.651C305.045 343.186 305.34 342.79 305.716 342.512C306.091 342.235 306.53 342.088 306.978 342.089C307.607 342.115 308.2 342.423 308.629 342.944C309.058 343.465 309.287 344.158 309.266 344.87Z" fill="white"/>
<path d="M316.375 344.908C316.344 345.417 316.182 345.905 315.908 346.31C315.635 346.716 315.262 347.021 314.836 347.189C314.411 347.357 313.951 347.379 313.514 347.253C313.078 347.127 312.683 346.859 312.38 346.481C312.077 346.104 311.879 345.633 311.809 345.129C311.74 344.625 311.804 344.109 311.991 343.645C312.179 343.181 312.483 342.789 312.866 342.52C313.248 342.25 313.692 342.113 314.143 342.127C314.761 342.169 315.341 342.484 315.758 343.003C316.175 343.523 316.396 344.206 316.375 344.908Z" fill="white"/>
</g>
<path d="M306.275 162.437C307.05 162.05 307.708 161.414 308.166 160.607C308.624 159.8 308.863 158.858 308.853 157.899C308.882 157.275 308.798 156.651 308.607 156.065C308.416 155.48 308.122 154.944 307.743 154.491C307.363 154.038 306.906 153.677 306.4 153.43C305.893 153.184 305.347 153.057 304.796 153.057C304.245 153.057 303.699 153.184 303.192 153.43C302.686 153.677 302.229 154.038 301.849 154.491C301.47 154.944 301.176 155.48 300.985 156.065C300.794 156.651 300.71 157.275 300.739 157.899C300.722 158.868 300.959 159.821 301.42 160.637C301.881 161.454 302.545 162.098 303.328 162.487C297.079 163.549 297.358 171.234 297.358 171.234L312.134 171.31C312.134 171.31 312.48 163.486 306.275 162.437Z" fill="#56E7D5"/>
<path opacity="0.1" d="M306.275 162.437C307.05 162.05 307.708 161.414 308.166 160.607C308.624 159.8 308.863 158.858 308.853 157.899C308.882 157.275 308.798 156.651 308.607 156.065C308.416 155.48 308.122 154.944 307.743 154.491C307.363 154.038 306.906 153.677 306.4 153.43C305.893 153.184 305.347 153.057 304.796 153.057C304.245 153.057 303.699 153.184 303.192 153.43C302.686 153.677 302.229 154.038 301.849 154.491C301.47 154.944 301.176 155.48 300.985 156.065C300.794 156.651 300.71 157.275 300.739 157.899C300.722 158.868 300.959 159.821 301.42 160.637C301.881 161.454 302.545 162.098 303.328 162.487C297.079 163.549 297.358 171.234 297.358 171.234L312.134 171.31C312.134 171.31 312.48 163.486 306.275 162.437Z" fill="black"/>
<path d="M330.285 176.267L277.622 175.996L277.593 183.125L330.257 183.395L330.285 176.267Z" fill="#56E7D5"/>
<path opacity="0.2" d="M330.285 176.267L277.622 175.996L277.593 183.125L330.257 183.395L330.285 176.267Z" fill="white"/>
<path d="M136.677 213.212H136.152L134.634 213.338C133.813 213.394 132.996 213.516 132.19 213.704C131.668 213.788 131.15 213.901 130.639 214.046L128.909 214.589C125.965 215.612 123.187 217.171 120.684 219.203C117.377 221.921 114.616 225.402 112.582 229.416C111.387 231.73 110.435 234.195 109.747 236.76C109.025 239.548 108.609 242.426 108.509 245.33C108.442 246.855 108.465 248.384 108.576 249.905C108.576 250.676 108.765 251.448 108.855 252.231C108.93 253.021 109.06 253.803 109.245 254.57C110.249 259.642 112.285 264.378 115.191 268.401C118.098 272.423 121.794 275.621 125.985 277.739C129.019 279.221 132.27 280.049 135.572 280.178C138.982 280.391 142.395 279.837 145.616 278.548L146.598 278.131H146.732L146.843 278.206L160.916 286.296L160.503 286.7C158.997 281.417 157.546 276.298 156.14 271.381V271.191L156.262 271.052C159.676 267.158 162.21 262.388 163.65 257.148C164.954 252.358 165.335 247.306 164.766 242.334C164.26 237.916 163.006 233.65 161.072 229.77C159.405 226.437 157.255 223.446 154.711 220.922C152.612 218.924 150.29 217.249 147.803 215.942C145.922 215.023 143.962 214.324 141.955 213.856L139.723 213.439L138.105 213.3L137.123 213.224H136.788C136.899 213.21 137.012 213.21 137.123 213.224H138.116L139.734 213.3L141.966 213.667C143.998 214.1 145.984 214.774 147.892 215.676C150.422 216.968 152.786 218.639 154.923 220.644C157.514 223.157 159.71 226.148 161.418 229.492C163.407 233.413 164.7 237.737 165.224 242.22C165.84 247.269 165.486 252.408 164.186 257.287C162.737 262.636 160.163 267.507 156.686 271.482L156.753 271.153C158.16 276.07 159.621 281.189 161.139 286.46L161.351 287.231L160.715 286.865L146.642 278.788H146.888L145.884 279.205C142.601 280.513 139.125 281.08 135.65 280.873C132.277 280.728 128.958 279.871 125.862 278.345C119.959 275.482 115.046 270.504 111.879 264.176C110.421 261.253 109.357 258.101 108.721 254.822C108.546 254.036 108.416 253.238 108.33 252.433C108.241 251.637 108.096 250.853 108.062 250.07C107.76 245.572 108.18 241.05 109.301 236.722C110.006 234.121 110.984 231.626 112.214 229.29C114.296 225.239 117.115 221.736 120.483 219.013C123.027 216.976 125.852 215.43 128.842 214.438L130.594 213.932C131.11 213.797 131.631 213.691 132.157 213.616C132.971 213.445 133.795 213.344 134.623 213.313L136.152 213.249C136.326 213.223 136.501 213.21 136.677 213.212Z" fill="#56E7D5"/>
<path d="M143.038 242.688H140.973L136.509 235.584V230.92C136.509 230.92 133.317 230.693 133.697 236.798C134.076 242.903 133.697 241.348 133.697 241.348C133.697 241.348 126.923 241.348 126.365 242.043C125.807 242.739 125.773 250.146 125.695 254.279C125.652 255.275 125.905 256.259 126.412 257.075C126.92 257.89 127.653 258.49 128.496 258.779C128.733 258.853 128.976 258.891 129.222 258.892C130.918 258.892 139.545 257.338 139.545 257.338H143.105L143.038 242.688Z" fill="#56E7D5"/>
<path d="M148.941 241.437L147.669 257.414H144.143V241.765L148.941 241.437Z" fill="#56E7D5"/>
<path d="M191.003 566.702V555.894L173.895 555.755L173.75 572.099L174.81 572.187C179.531 572.529 198.827 573.034 201.996 571.922C205.523 570.683 191.003 566.702 191.003 566.702Z" fill="#56E7D5"/>
<path d="M202.398 570.911C202.398 571.088 195.992 571.24 188.102 571.24C180.212 571.24 173.806 571.088 173.806 570.911C173.806 570.734 180.212 570.582 188.102 570.582C195.992 570.582 202.398 570.734 202.398 570.911Z" fill="#263238"/>
<path d="M191.305 568.914C191.16 568.825 191.305 568.257 191.651 567.65C191.997 567.043 192.466 566.79 192.577 566.917C192.689 567.043 192.454 567.523 192.12 568.042C191.785 568.56 191.45 569.002 191.305 568.914Z" fill="#263238"/>
<path d="M192.399 569.622C192.242 569.622 192.32 568.914 192.655 568.244C192.99 567.574 193.436 567.169 193.559 567.271C193.682 567.372 193.481 567.94 193.169 568.535C192.856 569.129 192.544 569.685 192.399 569.622Z" fill="#263238"/>
<path d="M178.962 570.86C178.895 570.86 178.638 570.633 178.27 570.152C177.82 569.535 177.32 568.968 176.775 568.459C176.239 567.974 175.6 567.656 174.922 567.536C174.397 567.46 174.063 567.536 174.029 567.46C173.996 567.384 174.319 567.119 174.933 567.068C175.743 567.049 176.533 567.353 177.165 567.928C177.757 568.474 178.256 569.138 178.638 569.887C178.895 570.443 179.029 570.81 178.962 570.86Z" fill="#263238"/>
<path d="M191.361 566.879C191.439 567.03 191.149 567.41 190.658 567.612C190.167 567.814 189.731 567.738 189.709 567.612C189.687 567.486 190.033 567.22 190.457 567.043C190.881 566.866 191.271 566.727 191.361 566.879Z" fill="#263238"/>
<path d="M191.093 565.829C191.093 566.019 190.646 566.171 190.066 566.183C189.486 566.196 189.028 566.044 189.039 565.867C189.05 565.69 189.508 565.526 190.066 565.513C190.624 565.501 191.07 565.652 191.093 565.829Z" fill="#263238"/>
<path d="M233.133 566.702V555.894L216.024 555.755L215.879 571.935L216.94 572.023C221.66 572.364 240.967 573.034 244.125 571.922C247.652 570.683 233.133 566.702 233.133 566.702Z" fill="#56E7D5"/>
<path d="M244.527 570.936C244.527 571.113 238.132 571.265 230.231 571.265C222.33 571.265 215.946 571.113 215.946 570.936C215.946 570.759 222.341 570.607 230.231 570.607C238.121 570.607 244.527 570.759 244.527 570.936Z" fill="#263238"/>
<path d="M233.434 568.914C233.3 568.825 233.434 568.257 233.78 567.65C234.126 567.043 234.595 566.79 234.706 566.917C234.818 567.043 234.583 567.523 234.249 568.042C233.914 568.56 233.579 569.002 233.434 568.914Z" fill="#263238"/>
<path d="M234.528 569.622C234.382 569.622 234.449 568.914 234.795 568.244C235.141 567.574 235.577 567.169 235.699 567.271C235.822 567.372 235.61 567.94 235.298 568.535C234.985 569.129 234.684 569.685 234.528 569.622Z" fill="#263238"/>
<path d="M221.091 570.86C221.024 570.86 220.778 570.633 220.399 570.152C219.949 569.535 219.449 568.968 218.903 568.459C218.367 567.974 217.729 567.656 217.051 567.536C216.538 567.46 216.192 567.536 216.158 567.46C216.125 567.384 216.448 567.119 217.062 567.068C217.872 567.049 218.662 567.353 219.294 567.928C219.889 568.471 220.389 569.135 220.767 569.887C221.024 570.443 221.158 570.81 221.091 570.86Z" fill="#263238"/>
<path d="M233.49 566.879C233.568 567.03 233.278 567.41 232.787 567.612C232.295 567.814 231.86 567.738 231.838 567.612C231.816 567.486 232.162 567.22 232.586 567.043C233.01 566.866 233.4 566.727 233.49 566.879Z" fill="#263238"/>
<path d="M233.244 565.829C233.244 566.019 232.798 566.171 232.217 566.183C231.637 566.196 231.191 566.044 231.202 565.867C231.213 565.69 231.659 565.526 232.217 565.513C232.775 565.501 233.244 565.652 233.244 565.829Z" fill="#263238"/>
<path d="M296.164 245.772C295.718 245.254 294.613 245.507 294.613 245.507C294.724 244.779 294.724 244.035 294.613 243.307C294.412 242.599 293.006 242.739 293.006 242.739C292.941 242.142 292.941 241.54 293.006 240.944C293.017 240.812 292.992 240.679 292.934 240.563C292.876 240.448 292.788 240.356 292.682 240.299C292.017 239.992 291.302 239.845 290.584 239.869C289.725 239.174 293.207 233.65 294.501 231.881C295.796 230.111 295.562 228.733 294.412 228.733C293.62 228.733 289.558 234.042 288.308 235.824C287.058 237.607 283.743 242.562 283.632 238.605C283.52 234.649 282.114 231.666 281.232 231.16C280.351 230.655 279.413 231.843 279.893 232.943C280.315 234.192 280.578 235.503 280.674 236.836C280.795 237.897 280.754 238.975 280.551 240.021C280.181 241.967 279.678 243.877 279.045 245.734H278.956C278.956 245.734 254.604 272.19 252.841 274.073C251.268 275.767 219.618 272.063 213.268 271.305C211.11 270.947 208.931 270.778 206.75 270.799C203.994 270.938 203.503 271.381 200.757 271.419C193.824 271.506 186.907 272.195 180.067 273.479C176.969 274.075 174.076 275.624 171.703 277.955C169.329 280.287 167.567 283.312 166.608 286.7C160.213 309.326 145.727 362.882 143.172 392.965C141.241 396.931 139.497 401.011 137.949 405.188C136.152 410.724 136.587 410.914 137.19 411.04C138.819 411.381 140.672 401.446 141.364 403.848C142.056 406.25 137.848 415.692 139.556 415.97C141.788 416.324 143.562 405.858 143.774 405.023C143.986 404.189 145.091 404.455 144.89 405.238C144.567 406.351 141.431 418.144 143.618 418.523C144.823 418.725 144.957 416.235 144.957 416.235C144.957 416.235 147.189 404.948 148.205 405.175C149.221 405.403 148.138 412.064 147.625 414.289C147.111 416.513 147.826 417.638 148.875 417.095C149.589 416.715 151.296 409.953 151.765 407.754C152.234 405.554 153.406 399.462 154.979 402.988C156.553 406.515 158.941 408.563 159.923 408.613C160.144 408.584 160.353 408.481 160.522 408.317C160.691 408.152 160.813 407.935 160.872 407.691C160.93 407.448 160.924 407.19 160.852 406.951C160.78 406.712 160.647 406.503 160.47 406.351C159.625 405.416 158.9 404.353 158.316 403.191C157.795 402.286 157.418 401.285 157.2 400.233C156.75 398.136 156.488 395.993 156.419 393.837L156.24 392.573C158.74 378.555 165.938 337.412 176.328 311.134L180.591 321.069L182.444 328.425L171.083 360.189L219.54 359.469L212.308 327.945L221.091 295.081C230.588 295.321 254.973 295.725 259.035 293.64C264.146 291.112 290.584 253.293 290.584 253.293C292.308 251.776 293.958 250.156 295.528 248.439C295.528 248.439 297.135 246.91 296.164 245.772Z" fill="#FFBE9D"/>
<path d="M168.952 336.717C170.358 331.282 177.578 304.409 177.578 304.409C177.578 304.409 181.127 326.314 180.19 328.956C179.327 331.217 178.309 333.398 177.143 335.478C168.952 349.597 170.023 356.663 170.023 356.663L219.518 354.956C219.629 347.12 215.533 328.893 214.685 325.986C213.837 323.078 216.661 313.56 216.661 313.56C216.661 313.56 222.241 307.127 222.04 303.815C221.934 300.84 221.609 297.881 221.069 294.967L251.201 296.231L250.252 273.1L206.974 268.195C205.467 273.011 191.841 270.648 191.841 270.648C177.132 271.204 176.217 274.263 170.101 279.647C163.985 285.032 153.863 331.244 153.863 331.244L168.952 336.717Z" fill="#56E7D5"/>
<path d="M198.213 331.244C197.355 331.417 196.481 331.468 195.613 331.395C193.994 331.395 191.773 331.269 189.329 330.991C186.885 330.713 184.676 330.321 183.102 329.967C182.235 329.841 181.384 329.594 180.569 329.234C181.441 329.234 182.312 329.327 183.169 329.512C184.754 329.74 186.952 330.056 189.385 330.334C191.818 330.612 194.028 330.801 195.624 330.928C196.494 330.94 197.361 331.046 198.213 331.244Z" fill="#263238"/>
<path d="M201.605 326.479C200.747 326.955 199.84 327.307 198.905 327.528C194.452 328.853 189.859 329.47 185.256 329.36C184.304 329.396 183.351 329.294 182.421 329.057C183.361 328.923 184.309 328.868 185.256 328.893C187.008 328.83 189.419 328.691 192.075 328.337C194.731 327.983 197.097 327.477 198.771 327.073C199.701 326.791 200.648 326.593 201.605 326.479Z" fill="#263238"/>
<path d="M218.256 305.218C218.234 306.182 218.118 307.14 217.91 308.075C217.62 309.832 217.174 312.233 216.604 314.862C216.035 317.491 215.488 319.918 214.997 321.562C214.8 322.502 214.508 323.414 214.127 324.279C214.189 323.318 214.346 322.369 214.596 321.448C215.02 319.476 215.5 317.201 216.035 314.711C216.571 312.221 217.084 309.945 217.508 307.974C217.659 307.024 217.911 306.099 218.256 305.218Z" fill="#263238"/>
<path d="M169.476 333.494C166.894 333.042 164.346 332.37 161.854 331.484C159.307 330.809 156.808 329.922 154.376 328.829C156.957 329.288 159.505 329.96 161.999 330.839C164.546 331.511 167.046 332.399 169.476 333.494Z" fill="#263238"/>
<path d="M221.604 294.689C221.183 294.771 220.753 294.771 220.332 294.689C219.166 294.553 218.022 294.243 216.928 293.766C215.103 292.989 213.441 291.788 212.049 290.24C210.658 288.693 209.567 286.832 208.849 284.779C208.054 282.52 207.714 280.089 207.855 277.663C207.905 275.662 208.433 273.713 209.384 272.025C210.053 270.888 211.052 270.052 212.208 269.662C212.517 269.565 212.836 269.518 213.156 269.523C213.379 269.523 213.491 269.523 213.491 269.523C213.491 269.523 213.022 269.523 212.275 269.864C211.214 270.308 210.315 271.139 209.719 272.228C208.201 274.933 207.777 279.875 209.395 284.488C210.148 286.664 211.328 288.617 212.844 290.202C214.086 291.498 215.517 292.542 217.073 293.286C218.534 293.94 220.053 294.41 221.604 294.689Z" fill="#263238"/>
<path d="M247.618 295.776C247.339 291.9 247.25 288.009 247.351 284.122C247.263 280.238 247.367 276.351 247.663 272.48C247.942 276.352 248.032 280.239 247.931 284.122C248.025 288.01 247.92 291.901 247.618 295.776Z" fill="#263238"/>
<path d="M206.684 269.611C206.806 266.792 207.063 263.607 207.063 263.607C207.063 263.607 213.223 262.836 213.592 255.631C213.96 248.427 213.592 231.805 213.592 231.805L202.432 225.333L190.044 236.368L191.952 272.392L203.313 273.214C204.182 273.241 205.024 272.877 205.656 272.202C206.288 271.526 206.657 270.595 206.684 269.611Z" fill="#FFBE9D"/>
<path d="M207.788 249.931C207.788 249.931 207.788 250.07 207.688 250.234C207.605 250.353 207.497 250.448 207.375 250.509C207.252 250.571 207.119 250.598 206.985 250.588C206.271 250.588 205.579 249.653 205.333 248.566C205.216 248.039 205.216 247.487 205.333 246.96C205.356 246.73 205.429 246.51 205.546 246.321C205.663 246.131 205.82 245.977 206.003 245.873C206.153 245.803 206.321 245.803 206.471 245.873C206.583 245.936 206.673 246.038 206.728 246.164C206.806 246.379 206.728 246.518 206.728 246.505C206.728 246.493 206.728 246.379 206.617 246.252C206.558 246.162 206.472 246.099 206.376 246.076C206.279 246.052 206.178 246.07 206.092 246.126C205.955 246.22 205.841 246.351 205.761 246.508C205.681 246.665 205.638 246.842 205.634 247.023C205.541 247.494 205.541 247.982 205.634 248.452C205.858 249.438 206.46 250.234 206.996 250.31C207.101 250.326 207.207 250.317 207.309 250.285C207.411 250.252 207.506 250.196 207.587 250.12C207.721 250.019 207.766 249.918 207.788 249.931Z" fill="#EB996E"/>
<path d="M217.419 227.912C216.56 224.6 213.446 222.957 210.612 222.047C206.293 220.656 201.628 220.05 197.41 221.807C193.191 223.564 188.124 226.648 188.124 231.919C185.636 231.691 184.207 234.156 183.225 237.215C182.597 239.078 182.221 241.039 182.109 243.029C181.797 249.931 180.089 259.461 176.139 264.517C173.907 267.336 170.815 269.283 169.543 272.796C168.427 275.843 169.007 279.458 167.969 282.542C167.043 285.259 165.001 287.193 163.505 289.557C161.982 292.239 161.085 295.315 160.9 298.496C160.714 301.678 161.246 304.861 162.445 307.746C163.653 310.557 165.353 313.06 167.443 315.103C169.532 317.146 171.967 318.685 174.598 319.628C179.811 321.424 185.37 321.485 190.613 319.805C194.548 318.739 198.218 316.678 201.349 313.775C204.552 310.813 206.752 306.686 207.576 302.096C208.369 296.939 207.096 291.693 206.148 286.561C203.179 270.344 204.027 269.497 207.777 254.443C207.866 254.178 207.911 253.9 207.978 253.634C208.045 253.369 208.079 253.242 208.123 253.04C208.23 252.445 208.286 251.84 208.291 251.233C207.743 251.463 207.148 251.512 206.577 251.373C206.006 251.234 205.481 250.914 205.065 250.449C204.648 249.953 204.358 249.339 204.224 248.671C204.09 248.004 204.119 247.308 204.306 246.657C204.57 245.945 204.962 245.304 205.458 244.775C205.954 244.246 206.543 243.841 207.186 243.585C208.424 243.004 209.752 242.701 210.969 242.056C213.547 240.666 215.332 237.784 216.549 234.763C217.549 232.669 217.858 230.24 217.419 227.912Z" fill="#263238"/>
<path d="M208.235 250.272C208.471 250.667 208.665 251.091 208.815 251.536C209.15 252.332 209.596 253.457 210.087 254.759L210.177 254.999H209.942L208.826 255.113C208.056 255.113 207.409 255.277 206.65 255.265C206.584 255.248 206.523 255.212 206.472 255.162C206.421 255.111 206.383 255.046 206.36 254.974C206.327 254.859 206.327 254.735 206.36 254.62C206.386 254.45 206.419 254.281 206.46 254.115L206.661 253.217C206.762 252.618 206.919 252.034 207.13 251.473C207.109 252.083 207.031 252.689 206.896 253.28L206.739 254.178C206.684 254.481 206.583 254.949 206.739 254.911C207.297 254.911 208.09 254.772 208.826 254.721L209.942 254.607L209.797 254.886C209.317 253.622 208.916 252.433 208.681 251.612C208.476 251.192 208.325 250.741 208.235 250.272Z" fill="#56E7D5"/>
<path d="M170.023 356.663L219.517 354.956L241.056 450.186L237.094 559.421H210.924L214.127 452.512L194.988 386.215L197.934 563.655L171.485 564.098L168.706 397.313C168.583 392.674 167.244 382.221 167.746 377.62L170.023 356.663Z" fill="#263238"/>
<path d="M201.572 387.568C200.762 387.625 199.948 387.57 199.15 387.403C197.655 387.201 195.612 386.847 193.369 386.341C191.126 385.836 189.117 385.254 187.667 384.787C186.891 384.594 186.141 384.288 185.435 383.877C185.435 383.687 189.073 384.673 193.537 385.697C198.001 386.721 201.594 387.378 201.572 387.568Z" fill="#455A64"/>
<path d="M236.826 553.43C236.826 553.607 230.9 553.758 223.591 553.758C216.281 553.758 210.344 553.607 210.344 553.43C210.344 553.253 216.27 553.101 223.591 553.101C230.912 553.101 236.826 553.24 236.826 553.43Z" fill="#455A64"/>
<path d="M197.7 559.042C197.7 559.231 191.941 559.37 184.843 559.37C177.745 559.37 171.998 559.231 171.998 559.042C171.998 558.852 177.757 558.713 184.843 558.713C191.93 558.713 197.7 558.865 197.7 559.042Z" fill="#455A64"/>
<path d="M194.284 558.587C194.128 558.587 193.436 519.82 192.733 472.003C192.03 424.186 191.617 385.394 191.762 385.394C191.907 385.394 192.622 424.148 193.314 471.99C194.005 519.833 194.452 558.587 194.284 558.587Z" fill="#455A64"/>
<path d="M233.311 553.43C233.299 553.257 233.299 553.084 233.311 552.911V551.395C233.311 550.03 233.4 548.07 233.467 545.58C233.624 540.524 233.847 533.18 234.126 524.181C234.728 506.08 235.577 481.129 236.503 453.586C236.503 453.321 236.503 453.068 236.503 452.841V452.929C230.644 426.385 225.343 402.293 221.493 384.863L217.029 364.247C216.515 361.833 216.125 359.949 215.846 358.635C215.712 358.015 215.623 357.535 215.544 357.168C215.501 357.004 215.475 356.834 215.466 356.663C215.524 356.822 215.569 356.987 215.6 357.156C215.69 357.51 215.801 357.99 215.957 358.597C216.259 359.861 216.694 361.782 217.252 364.184C218.368 369.063 219.941 376.091 221.906 384.749C225.789 402.167 231.146 426.195 237.083 452.777V452.866C237.083 453.093 237.083 453.359 237.083 453.612C236.09 481.154 235.186 506.093 234.528 524.193C234.182 533.206 233.891 540.499 233.691 545.58C233.579 548.108 233.49 550.03 233.434 551.395C233.434 552.039 233.367 552.545 233.356 552.911C233.357 553.086 233.342 553.259 233.311 553.43Z" fill="#455A64"/>
<path d="M224.774 450.616C222.894 451.316 220.957 451.803 218.993 452.07C216.582 452.537 214.529 452.866 213.602 452.916V452.664C213.904 452.765 214.06 452.828 214.06 452.879C214.06 452.929 213.87 452.879 213.558 452.879H212.888L213.558 452.651C214.428 452.36 216.482 451.88 218.892 451.387C220.826 450.912 222.796 450.654 224.774 450.616Z" fill="#455A64"/>
<path d="M224.316 454.244C222.575 454.334 220.831 454.245 219.104 453.978C217.361 453.938 215.625 453.722 213.915 453.334C217.403 453.011 220.914 453.318 224.316 454.244Z" fill="#455A64"/>
<path opacity="0.2" d="M169.811 358.673C170.397 359.525 171.135 360.228 171.977 360.735C172.82 361.243 173.747 361.544 174.699 361.618C176.692 361.885 178.708 361.843 180.692 361.491C193.47 359.886 207.007 358.407 219.517 354.956C203.324 355.98 186.216 355.639 170.023 356.663L169.855 358.23" fill="black"/>
<g opacity="0.2">
<path d="M186.495 384.521L195.624 424.641L194.987 386.215L186.495 384.521Z" fill="black"/>
</g>
</svg>
